<svg width="405" height="53" viewBox="0 0 405 53" fill="none" xmlns="http://www.w3.org/2000/svg">
<path d="M3.35938 4.625V16H1.01562V4.625H3.35938ZM7.89062 9.48438V11.3125H2.71875V9.48438H7.89062ZM8.4375 4.625V6.46094H2.71875V4.625H8.4375ZM14.2844 13.9766V7.54688H16.5344V16H14.4172L14.2844 13.9766ZM14.5344 12.2422L15.1984 12.2266C15.1984 12.7891 15.1333 13.3125 15.0031 13.7969C14.8729 14.276 14.6776 14.6927 14.4172 15.0469C14.1568 15.3958 13.8286 15.6693 13.4328 15.8672C13.037 16.0599 12.5708 16.1562 12.0344 16.1562C11.6229 16.1562 11.2427 16.099 10.8938 15.9844C10.55 15.8646 10.2531 15.6797 10.0031 15.4297C9.75833 15.1745 9.56563 14.849 9.425 14.4531C9.28958 14.0521 9.22188 13.5703 9.22188 13.0078V7.54688H11.4719V13.0234C11.4719 13.2734 11.5005 13.4844 11.5578 13.6562C11.6203 13.8281 11.7063 13.9688 11.8156 14.0781C11.925 14.1875 12.0526 14.2656 12.1984 14.3125C12.3495 14.3594 12.5161 14.3828 12.6984 14.3828C13.162 14.3828 13.5266 14.2891 13.7922 14.1016C14.063 13.9141 14.2531 13.6589 14.3625 13.3359C14.4771 13.0078 14.5344 12.6432 14.5344 12.2422ZM24.7797 14.2422V16H18.3578V14.2422H24.7797ZM24.6547 8.84375L19.2641 16H17.7563V14.6641L23.1234 7.54688H24.6547V8.84375ZM23.8578 7.54688V9.3125H17.8813V7.54688H23.8578ZM32.7203 14.2422V16H26.2984V14.2422H32.7203ZM32.5953 8.84375L27.2047 16H25.6969V14.6641L31.0641 7.54688H32.5953V8.84375ZM31.7984 7.54688V9.3125H25.8219V7.54688H31.7984ZM36.4422 15.0469L38.6844 7.54688H41.0984L37.7 17.2734C37.6271 17.487 37.5281 17.7161 37.4031 17.9609C37.2833 18.2057 37.1193 18.4375 36.9109 18.6562C36.7078 18.8802 36.45 19.0625 36.1375 19.2031C35.8302 19.3438 35.4526 19.4141 35.0047 19.4141C34.7911 19.4141 34.6167 19.401 34.4813 19.375C34.3458 19.349 34.1844 19.3125 33.9969 19.2656V17.6172C34.0542 17.6172 34.1141 17.6172 34.1766 17.6172C34.2391 17.6224 34.299 17.625 34.3563 17.625C34.6531 17.625 34.8953 17.5911 35.0828 17.5234C35.2703 17.4557 35.4214 17.3516 35.5359 17.2109C35.6505 17.0755 35.7417 16.8984 35.8094 16.6797L36.4422 15.0469ZM35.5047 7.54688L37.3406 13.6719L37.6609 16.0547L36.1297 16.2188L33.0906 7.54688H35.5047Z" fill="black"/>
<path d="M153.32 4.625H157.086C157.94 4.625 158.661 4.75521 159.25 5.01562C159.844 5.27604 160.294 5.66146 160.602 6.17188C160.914 6.67708 161.07 7.29948 161.07 8.03906C161.07 8.5599 160.964 9.03646 160.75 9.46875C160.542 9.89583 160.24 10.2604 159.844 10.5625C159.453 10.8594 158.984 11.0807 158.438 11.2266L158.016 11.3906H154.477L154.461 10.1641H157.133C157.674 10.1641 158.125 10.0703 158.484 9.88281C158.844 9.6901 159.115 9.43229 159.297 9.10938C159.479 8.78646 159.57 8.42969 159.57 8.03906C159.57 7.60156 159.484 7.21875 159.312 6.89062C159.141 6.5625 158.87 6.3099 158.5 6.13281C158.135 5.95052 157.664 5.85938 157.086 5.85938H154.828V16H153.32V4.625ZM159.969 16L157.203 10.8438L158.773 10.8359L161.578 15.9062V16H159.969ZM166.269 16.1562C165.68 16.1562 165.146 16.0573 164.667 15.8594C164.193 15.6562 163.784 15.3724 163.441 15.0078C163.102 14.6432 162.842 14.2109 162.659 13.7109C162.477 13.2109 162.386 12.6641 162.386 12.0703V11.7422C162.386 11.0547 162.488 10.4427 162.691 9.90625C162.894 9.36458 163.17 8.90625 163.519 8.53125C163.868 8.15625 164.264 7.8724 164.706 7.67969C165.149 7.48698 165.607 7.39062 166.081 7.39062C166.685 7.39062 167.206 7.49479 167.644 7.70312C168.086 7.91146 168.448 8.20312 168.73 8.57812C169.011 8.94792 169.219 9.38542 169.355 9.89062C169.49 10.3906 169.558 10.9375 169.558 11.5312V12.1797H163.245V11H168.113V10.8906C168.092 10.5156 168.014 10.151 167.878 9.79688C167.748 9.44271 167.54 9.15104 167.253 8.92188C166.967 8.69271 166.576 8.57812 166.081 8.57812C165.753 8.57812 165.451 8.64844 165.175 8.78906C164.899 8.92448 164.662 9.1276 164.464 9.39844C164.266 9.66927 164.113 10 164.003 10.3906C163.894 10.7812 163.839 11.2318 163.839 11.7422V12.0703C163.839 12.4714 163.894 12.849 164.003 13.2031C164.118 13.5521 164.282 13.8594 164.495 14.125C164.714 14.3906 164.977 14.599 165.284 14.75C165.597 14.901 165.951 14.9766 166.347 14.9766C166.857 14.9766 167.29 14.8724 167.644 14.6641C167.998 14.4557 168.308 14.1771 168.573 13.8281L169.448 14.5234C169.266 14.7995 169.034 15.0625 168.753 15.3125C168.472 15.5625 168.126 15.7656 167.714 15.9219C167.308 16.0781 166.826 16.1562 166.269 16.1562ZM174.428 14.9688C174.772 14.9688 175.09 14.8984 175.381 14.7578C175.673 14.6172 175.913 14.4245 176.1 14.1797C176.288 13.9297 176.394 13.6458 176.42 13.3281H177.795C177.769 13.8281 177.6 14.2943 177.288 14.7266C176.98 15.1536 176.577 15.5 176.077 15.7656C175.577 16.026 175.027 16.1562 174.428 16.1562C173.793 16.1562 173.238 16.0443 172.764 15.8203C172.295 15.5964 171.905 15.2891 171.592 14.8984C171.285 14.5078 171.053 14.0599 170.897 13.5547C170.746 13.0443 170.67 12.5052 170.67 11.9375V11.6094C170.67 11.0417 170.746 10.5052 170.897 10C171.053 9.48958 171.285 9.03906 171.592 8.64844C171.905 8.25781 172.295 7.95052 172.764 7.72656C173.238 7.5026 173.793 7.39062 174.428 7.39062C175.09 7.39062 175.668 7.52604 176.163 7.79688C176.657 8.0625 177.045 8.42708 177.327 8.89062C177.613 9.34896 177.769 9.86979 177.795 10.4531H176.42C176.394 10.1042 176.295 9.78906 176.123 9.50781C175.957 9.22656 175.728 9.0026 175.436 8.83594C175.149 8.66406 174.814 8.57812 174.428 8.57812C173.985 8.57812 173.613 8.66667 173.311 8.84375C173.014 9.01562 172.777 9.25 172.6 9.54688C172.428 9.83854 172.303 10.1641 172.225 10.5234C172.152 10.8776 172.116 11.2396 172.116 11.6094V11.9375C172.116 12.3073 172.152 12.6719 172.225 13.0312C172.298 13.3906 172.42 13.7161 172.592 14.0078C172.769 14.2995 173.006 14.5339 173.303 14.7109C173.605 14.8828 173.98 14.9688 174.428 14.9688ZM178.837 11.8672V11.6875C178.837 11.0781 178.926 10.513 179.103 9.99219C179.28 9.46615 179.535 9.01042 179.869 8.625C180.202 8.23438 180.606 7.93229 181.08 7.71875C181.554 7.5 182.085 7.39062 182.673 7.39062C183.267 7.39062 183.801 7.5 184.275 7.71875C184.754 7.93229 185.16 8.23438 185.494 8.625C185.832 9.01042 186.09 9.46615 186.267 9.99219C186.444 10.513 186.533 11.0781 186.533 11.6875V11.8672C186.533 12.4766 186.444 13.0417 186.267 13.5625C186.09 14.0833 185.832 14.5391 185.494 14.9297C185.16 15.3151 184.757 15.6172 184.283 15.8359C183.814 16.0495 183.283 16.1562 182.689 16.1562C182.095 16.1562 181.561 16.0495 181.087 15.8359C180.614 15.6172 180.207 15.3151 179.869 14.9297C179.535 14.5391 179.28 14.0833 179.103 13.5625C178.926 13.0417 178.837 12.4766 178.837 11.8672ZM180.283 11.6875V11.8672C180.283 12.2891 180.332 12.6875 180.431 13.0625C180.53 13.4323 180.679 13.7604 180.877 14.0469C181.08 14.3333 181.332 14.5599 181.634 14.7266C181.936 14.888 182.288 14.9688 182.689 14.9688C183.085 14.9688 183.431 14.888 183.728 14.7266C184.03 14.5599 184.28 14.3333 184.478 14.0469C184.676 13.7604 184.824 13.4323 184.923 13.0625C185.028 12.6875 185.08 12.2891 185.08 11.8672V11.6875C185.08 11.2708 185.028 10.8776 184.923 10.5078C184.824 10.1328 184.673 9.80208 184.47 9.51562C184.272 9.22396 184.022 8.99479 183.72 8.82812C183.423 8.66146 183.074 8.57812 182.673 8.57812C182.278 8.57812 181.929 8.66146 181.627 8.82812C181.33 8.99479 181.08 9.22396 180.877 9.51562C180.679 9.80208 180.53 10.1328 180.431 10.5078C180.332 10.8776 180.283 11.2708 180.283 11.6875ZM189.583 9.22656V16H188.13V7.54688H189.505L189.583 9.22656ZM189.286 11.4531L188.614 11.4297C188.619 10.8516 188.695 10.3177 188.841 9.82812C188.986 9.33333 189.203 8.90365 189.489 8.53906C189.776 8.17448 190.132 7.89323 190.559 7.69531C190.986 7.49219 191.481 7.39062 192.044 7.39062C192.44 7.39062 192.804 7.44792 193.138 7.5625C193.471 7.67188 193.76 7.84635 194.005 8.08594C194.249 8.32552 194.44 8.63281 194.575 9.00781C194.71 9.38281 194.778 9.83594 194.778 10.3672V16H193.333V10.4375C193.333 9.99479 193.257 9.64062 193.106 9.375C192.96 9.10938 192.752 8.91667 192.481 8.79688C192.21 8.67188 191.893 8.60938 191.528 8.60938C191.101 8.60938 190.744 8.6849 190.458 8.83594C190.171 8.98698 189.942 9.19531 189.77 9.46094C189.598 9.72656 189.473 10.0312 189.395 10.375C189.322 10.7135 189.286 11.0729 189.286 11.4531ZM194.763 10.6562L193.794 10.9531C193.799 10.4896 193.874 10.0443 194.02 9.61719C194.171 9.1901 194.388 8.8099 194.669 8.47656C194.955 8.14323 195.307 7.88021 195.723 7.6875C196.14 7.48958 196.617 7.39062 197.153 7.39062C197.606 7.39062 198.007 7.45052 198.356 7.57031C198.71 7.6901 199.007 7.875 199.247 8.125C199.492 8.36979 199.677 8.6849 199.802 9.07031C199.927 9.45573 199.989 9.91406 199.989 10.4453V16H198.536V10.4297C198.536 9.95573 198.46 9.58854 198.309 9.32812C198.164 9.0625 197.955 8.8776 197.684 8.77344C197.419 8.66406 197.101 8.60938 196.731 8.60938C196.414 8.60938 196.132 8.66406 195.888 8.77344C195.643 8.88281 195.437 9.03385 195.27 9.22656C195.104 9.41406 194.976 9.63021 194.888 9.875C194.804 10.1198 194.763 10.3802 194.763 10.6562ZM203.414 9.22656V16H201.961V7.54688H203.336L203.414 9.22656ZM203.117 11.4531L202.445 11.4297C202.451 10.8516 202.526 10.3177 202.672 9.82812C202.818 9.33333 203.034 8.90365 203.32 8.53906C203.607 8.17448 203.964 7.89323 204.391 7.69531C204.818 7.49219 205.312 7.39062 205.875 7.39062C206.271 7.39062 206.635 7.44792 206.969 7.5625C207.302 7.67188 207.591 7.84635 207.836 8.08594C208.081 8.32552 208.271 8.63281 208.406 9.00781C208.542 9.38281 208.609 9.83594 208.609 10.3672V16H207.164V10.4375C207.164 9.99479 207.089 9.64062 206.938 9.375C206.792 9.10938 206.583 8.91667 206.312 8.79688C206.042 8.67188 205.724 8.60938 205.359 8.60938C204.932 8.60938 204.576 8.6849 204.289 8.83594C204.003 8.98698 203.773 9.19531 203.602 9.46094C203.43 9.72656 203.305 10.0312 203.227 10.375C203.154 10.7135 203.117 11.0729 203.117 11.4531ZM208.594 10.6562L207.625 10.9531C207.63 10.4896 207.706 10.0443 207.852 9.61719C208.003 9.1901 208.219 8.8099 208.5 8.47656C208.786 8.14323 209.138 7.88021 209.555 7.6875C209.971 7.48958 210.448 7.39062 210.984 7.39062C211.438 7.39062 211.839 7.45052 212.188 7.57031C212.542 7.6901 212.839 7.875 213.078 8.125C213.323 8.36979 213.508 8.6849 213.633 9.07031C213.758 9.45573 213.82 9.91406 213.82 10.4453V16H212.367V10.4297C212.367 9.95573 212.292 9.58854 212.141 9.32812C211.995 9.0625 211.786 8.8776 211.516 8.77344C211.25 8.66406 210.932 8.60938 210.562 8.60938C210.245 8.60938 209.964 8.66406 209.719 8.77344C209.474 8.88281 209.268 9.03385 209.102 9.22656C208.935 9.41406 208.807 9.63021 208.719 9.875C208.635 10.1198 208.594 10.3802 208.594 10.6562ZM219.316 16.1562C218.727 16.1562 218.193 16.0573 217.714 15.8594C217.24 15.6562 216.831 15.3724 216.487 15.0078C216.149 14.6432 215.889 14.2109 215.706 13.7109C215.524 13.2109 215.433 12.6641 215.433 12.0703V11.7422C215.433 11.0547 215.534 10.4427 215.737 9.90625C215.941 9.36458 216.217 8.90625 216.566 8.53125C216.915 8.15625 217.31 7.8724 217.753 7.67969C218.196 7.48698 218.654 7.39062 219.128 7.39062C219.732 7.39062 220.253 7.49479 220.691 7.70312C221.133 7.91146 221.495 8.20312 221.777 8.57812C222.058 8.94792 222.266 9.38542 222.402 9.89062C222.537 10.3906 222.605 10.9375 222.605 11.5312V12.1797H216.292V11H221.159V10.8906C221.139 10.5156 221.06 10.151 220.925 9.79688C220.795 9.44271 220.586 9.15104 220.3 8.92188C220.014 8.69271 219.623 8.57812 219.128 8.57812C218.8 8.57812 218.498 8.64844 218.222 8.78906C217.946 8.92448 217.709 9.1276 217.511 9.39844C217.313 9.66927 217.159 10 217.05 10.3906C216.941 10.7812 216.886 11.2318 216.886 11.7422V12.0703C216.886 12.4714 216.941 12.849 217.05 13.2031C217.165 13.5521 217.329 13.8594 217.542 14.125C217.761 14.3906 218.024 14.599 218.331 14.75C218.644 14.901 218.998 14.9766 219.394 14.9766C219.904 14.9766 220.336 14.8724 220.691 14.6641C221.045 14.4557 221.355 14.1771 221.62 13.8281L222.495 14.5234C222.313 14.7995 222.081 15.0625 221.8 15.3125C221.519 15.5625 221.172 15.7656 220.761 15.9219C220.355 16.0781 219.873 16.1562 219.316 16.1562ZM225.537 9.35156V16H224.092V7.54688H225.459L225.537 9.35156ZM225.194 11.4531L224.592 11.4297C224.597 10.8516 224.683 10.3177 224.85 9.82812C225.017 9.33333 225.251 8.90365 225.553 8.53906C225.855 8.17448 226.215 7.89323 226.631 7.69531C227.053 7.49219 227.519 7.39062 228.03 7.39062C228.446 7.39062 228.821 7.44792 229.155 7.5625C229.488 7.67188 229.772 7.84896 230.006 8.09375C230.246 8.33854 230.428 8.65625 230.553 9.04688C230.678 9.43229 230.741 9.90365 230.741 10.4609V16H229.287V10.4453C229.287 10.0026 229.222 9.64844 229.092 9.38281C228.962 9.11198 228.772 8.91667 228.522 8.79688C228.272 8.67188 227.965 8.60938 227.6 8.60938C227.241 8.60938 226.912 8.6849 226.616 8.83594C226.324 8.98698 226.071 9.19531 225.858 9.46094C225.649 9.72656 225.485 10.0312 225.366 10.375C225.251 10.7135 225.194 11.0729 225.194 11.4531ZM238.064 14.3594V4H239.517V16H238.189L238.064 14.3594ZM232.377 11.8672V11.7031C232.377 11.0573 232.455 10.4714 232.611 9.94531C232.772 9.41406 232.999 8.95833 233.291 8.57812C233.588 8.19792 233.939 7.90625 234.345 7.70312C234.757 7.49479 235.215 7.39062 235.72 7.39062C236.252 7.39062 236.715 7.48438 237.111 7.67188C237.512 7.85417 237.851 8.1224 238.127 8.47656C238.408 8.82552 238.629 9.2474 238.791 9.74219C238.952 10.237 239.064 10.7969 239.127 11.4219V12.1406C239.069 12.7604 238.957 13.3177 238.791 13.8125C238.629 14.3073 238.408 14.7292 238.127 15.0781C237.851 15.4271 237.512 15.6953 237.111 15.8828C236.71 16.0651 236.241 16.1562 235.705 16.1562C235.21 16.1562 234.757 16.0495 234.345 15.8359C233.939 15.6224 233.588 15.3229 233.291 14.9375C232.999 14.5521 232.772 14.099 232.611 13.5781C232.455 13.0521 232.377 12.4818 232.377 11.8672ZM233.83 11.7031V11.8672C233.83 12.2891 233.871 12.6849 233.955 13.0547C234.043 13.4245 234.179 13.75 234.361 14.0312C234.543 14.3125 234.775 14.5339 235.056 14.6953C235.338 14.8516 235.673 14.9297 236.064 14.9297C236.543 14.9297 236.936 14.8281 237.244 14.625C237.556 14.4219 237.806 14.1536 237.994 13.8203C238.181 13.487 238.327 13.125 238.431 12.7344V10.8516C238.369 10.5651 238.278 10.2891 238.158 10.0234C238.043 9.7526 237.892 9.51302 237.705 9.30469C237.522 9.09115 237.296 8.92188 237.025 8.79688C236.759 8.67188 236.444 8.60938 236.08 8.60938C235.684 8.60938 235.343 8.69271 235.056 8.85938C234.775 9.02083 234.543 9.24479 234.361 9.53125C234.179 9.8125 234.043 10.1406 233.955 10.5156C233.871 10.8854 233.83 11.2812 233.83 11.7031ZM245.075 16.1562C244.486 16.1562 243.953 16.0573 243.473 15.8594C242.999 15.6562 242.591 15.3724 242.247 15.0078C241.908 14.6432 241.648 14.2109 241.466 13.7109C241.283 13.2109 241.192 12.6641 241.192 12.0703V11.7422C241.192 11.0547 241.294 10.4427 241.497 9.90625C241.7 9.36458 241.976 8.90625 242.325 8.53125C242.674 8.15625 243.07 7.8724 243.512 7.67969C243.955 7.48698 244.414 7.39062 244.887 7.39062C245.492 7.39062 246.012 7.49479 246.45 7.70312C246.893 7.91146 247.255 8.20312 247.536 8.57812C247.817 8.94792 248.026 9.38542 248.161 9.89062C248.296 10.3906 248.364 10.9375 248.364 11.5312V12.1797H242.052V11H246.919V10.8906C246.898 10.5156 246.82 10.151 246.684 9.79688C246.554 9.44271 246.346 9.15104 246.059 8.92188C245.773 8.69271 245.382 8.57812 244.887 8.57812C244.559 8.57812 244.257 8.64844 243.981 8.78906C243.705 8.92448 243.468 9.1276 243.27 9.39844C243.072 9.66927 242.919 10 242.809 10.3906C242.7 10.7812 242.645 11.2318 242.645 11.7422V12.0703C242.645 12.4714 242.7 12.849 242.809 13.2031C242.924 13.5521 243.088 13.8594 243.302 14.125C243.52 14.3906 243.783 14.599 244.091 14.75C244.403 14.901 244.757 14.9766 245.153 14.9766C245.664 14.9766 246.096 14.8724 246.45 14.6641C246.804 14.4557 247.114 14.1771 247.38 13.8281L248.255 14.5234C248.072 14.7995 247.841 15.0625 247.559 15.3125C247.278 15.5625 246.932 15.7656 246.52 15.9219C246.114 16.0781 245.632 16.1562 245.075 16.1562ZM255.18 14.3594V4H256.633V16H255.305L255.18 14.3594ZM249.492 11.8672V11.7031C249.492 11.0573 249.57 10.4714 249.727 9.94531C249.888 9.41406 250.115 8.95833 250.406 8.57812C250.703 8.19792 251.055 7.90625 251.461 7.70312C251.872 7.49479 252.331 7.39062 252.836 7.39062C253.367 7.39062 253.831 7.48438 254.227 7.67188C254.628 7.85417 254.966 8.1224 255.242 8.47656C255.523 8.82552 255.745 9.2474 255.906 9.74219C256.068 10.237 256.18 10.7969 256.242 11.4219V12.1406C256.185 12.7604 256.073 13.3177 255.906 13.8125C255.745 14.3073 255.523 14.7292 255.242 15.0781C254.966 15.4271 254.628 15.6953 254.227 15.8828C253.826 16.0651 253.357 16.1562 252.82 16.1562C252.326 16.1562 251.872 16.0495 251.461 15.8359C251.055 15.6224 250.703 15.3229 250.406 14.9375C250.115 14.5521 249.888 14.099 249.727 13.5781C249.57 13.0521 249.492 12.4818 249.492 11.8672ZM250.945 11.7031V11.8672C250.945 12.2891 250.987 12.6849 251.07 13.0547C251.159 13.4245 251.294 13.75 251.477 14.0312C251.659 14.3125 251.891 14.5339 252.172 14.6953C252.453 14.8516 252.789 14.9297 253.18 14.9297C253.659 14.9297 254.052 14.8281 254.359 14.625C254.672 14.4219 254.922 14.1536 255.109 13.8203C255.297 13.487 255.443 13.125 255.547 12.7344V10.8516C255.484 10.5651 255.393 10.2891 255.273 10.0234C255.159 9.7526 255.008 9.51302 254.82 9.30469C254.638 9.09115 254.411 8.92188 254.141 8.79688C253.875 8.67188 253.56 8.60938 253.195 8.60938C252.799 8.60938 252.458 8.69271 252.172 8.85938C251.891 9.02083 251.659 9.24479 251.477 9.53125C251.294 9.8125 251.159 10.1406 251.07 10.5156C250.987 10.8854 250.945 11.2812 250.945 11.7031Z" fill="black"/>
<path d="M375.383 13.125C375.383 12.8594 375.341 12.625 375.258 12.4219C375.18 12.2135 375.039 12.026 374.836 11.8594C374.638 11.6927 374.362 11.5339 374.008 11.3828C373.659 11.2318 373.216 11.0781 372.68 10.9219C372.117 10.7552 371.609 10.5703 371.156 10.3672C370.703 10.1589 370.315 9.92188 369.992 9.65625C369.669 9.39062 369.422 9.08594 369.25 8.74219C369.078 8.39844 368.992 8.00521 368.992 7.5625C368.992 7.11979 369.083 6.71094 369.266 6.33594C369.448 5.96094 369.708 5.63542 370.047 5.35938C370.391 5.07812 370.799 4.85938 371.273 4.70312C371.747 4.54688 372.276 4.46875 372.859 4.46875C373.714 4.46875 374.438 4.63281 375.031 4.96094C375.63 5.28385 376.086 5.70833 376.398 6.23438C376.711 6.75521 376.867 7.3125 376.867 7.90625H375.367C375.367 7.47917 375.276 7.10156 375.094 6.77344C374.911 6.4401 374.635 6.17969 374.266 5.99219C373.896 5.79948 373.427 5.70312 372.859 5.70312C372.323 5.70312 371.88 5.78385 371.531 5.94531C371.182 6.10677 370.922 6.32552 370.75 6.60156C370.583 6.8776 370.5 7.19271 370.5 7.54688C370.5 7.78646 370.549 8.00521 370.648 8.20312C370.753 8.39583 370.911 8.57552 371.125 8.74219C371.344 8.90885 371.62 9.0625 371.953 9.20312C372.292 9.34375 372.695 9.47917 373.164 9.60938C373.81 9.79167 374.367 9.99479 374.836 10.2188C375.305 10.4427 375.69 10.6953 375.992 10.9766C376.299 11.2526 376.526 11.5677 376.672 11.9219C376.823 12.2708 376.898 12.6667 376.898 13.1094C376.898 13.5729 376.805 13.9922 376.617 14.3672C376.43 14.7422 376.161 15.0625 375.812 15.3281C375.464 15.5938 375.044 15.7995 374.555 15.9453C374.07 16.0859 373.529 16.1562 372.93 16.1562C372.404 16.1562 371.885 16.0833 371.375 15.9375C370.87 15.7917 370.409 15.5729 369.992 15.2812C369.581 14.9896 369.25 14.6302 369 14.2031C368.755 13.7708 368.633 13.2708 368.633 12.7031H370.133C370.133 13.0938 370.208 13.4297 370.359 13.7109C370.51 13.987 370.716 14.2161 370.977 14.3984C371.242 14.5807 371.542 14.7161 371.875 14.8047C372.214 14.888 372.565 14.9297 372.93 14.9297C373.456 14.9297 373.901 14.8568 374.266 14.7109C374.63 14.5651 374.906 14.3568 375.094 14.0859C375.286 13.8151 375.383 13.4948 375.383 13.125ZM381.941 7.54688V8.65625H377.37V7.54688H381.941ZM378.917 5.49219H380.363V13.9062C380.363 14.1927 380.407 14.4089 380.495 14.5547C380.584 14.7005 380.698 14.7969 380.839 14.8438C380.98 14.8906 381.131 14.9141 381.292 14.9141C381.412 14.9141 381.537 14.9036 381.667 14.8828C381.803 14.8568 381.904 14.8359 381.972 14.8203L381.98 16C381.865 16.0365 381.714 16.0703 381.527 16.1016C381.344 16.138 381.123 16.1562 380.863 16.1562C380.508 16.1562 380.183 16.0859 379.886 15.9453C379.589 15.8047 379.352 15.5703 379.175 15.2422C379.003 14.9089 378.917 14.4609 378.917 13.8984V5.49219ZM384.881 8.875V16H383.436V7.54688H384.842L384.881 8.875ZM387.522 7.5L387.514 8.84375C387.394 8.81771 387.28 8.80208 387.17 8.79688C387.066 8.78646 386.946 8.78125 386.811 8.78125C386.478 8.78125 386.183 8.83333 385.928 8.9375C385.673 9.04167 385.457 9.1875 385.28 9.375C385.103 9.5625 384.962 9.78646 384.858 10.0469C384.759 10.3021 384.694 10.5833 384.663 10.8906L384.256 11.125C384.256 10.6146 384.306 10.1354 384.405 9.6875C384.509 9.23958 384.668 8.84375 384.881 8.5C385.095 8.15104 385.366 7.88021 385.694 7.6875C386.027 7.48958 386.423 7.39062 386.881 7.39062C386.985 7.39062 387.105 7.40365 387.241 7.42969C387.376 7.45052 387.47 7.47396 387.522 7.5ZM390.228 7.54688V16H388.775V7.54688H390.228ZM388.666 5.30469C388.666 5.07031 388.736 4.8724 388.877 4.71094C389.022 4.54948 389.236 4.46875 389.517 4.46875C389.793 4.46875 390.004 4.54948 390.15 4.71094C390.301 4.8724 390.377 5.07031 390.377 5.30469C390.377 5.52865 390.301 5.72135 390.15 5.88281C390.004 6.03906 389.793 6.11719 389.517 6.11719C389.236 6.11719 389.022 6.03906 388.877 5.88281C388.736 5.72135 388.666 5.52865 388.666 5.30469ZM395.731 14.9688C396.075 14.9688 396.393 14.8984 396.684 14.7578C396.976 14.6172 397.216 14.4245 397.403 14.1797C397.591 13.9297 397.697 13.6458 397.723 13.3281H399.098C399.072 13.8281 398.903 14.2943 398.591 14.7266C398.283 15.1536 397.88 15.5 397.38 15.7656C396.88 16.026 396.33 16.1562 395.731 16.1562C395.096 16.1562 394.541 16.0443 394.067 15.8203C393.598 15.5964 393.208 15.2891 392.895 14.8984C392.588 14.5078 392.356 14.0599 392.2 13.5547C392.049 13.0443 391.973 12.5052 391.973 11.9375V11.6094C391.973 11.0417 392.049 10.5052 392.2 10C392.356 9.48958 392.588 9.03906 392.895 8.64844C393.208 8.25781 393.598 7.95052 394.067 7.72656C394.541 7.5026 395.096 7.39062 395.731 7.39062C396.393 7.39062 396.971 7.52604 397.466 7.79688C397.96 8.0625 398.348 8.42708 398.63 8.89062C398.916 9.34896 399.072 9.86979 399.098 10.4531H397.723C397.697 10.1042 397.598 9.78906 397.427 9.50781C397.26 9.22656 397.031 9.0026 396.739 8.83594C396.453 8.66406 396.117 8.57812 395.731 8.57812C395.289 8.57812 394.916 8.66667 394.614 8.84375C394.317 9.01562 394.08 9.25 393.903 9.54688C393.731 9.83854 393.606 10.1641 393.528 10.5234C393.455 10.8776 393.419 11.2396 393.419 11.6094V11.9375C393.419 12.3073 393.455 12.6719 393.528 13.0312C393.601 13.3906 393.723 13.7161 393.895 14.0078C394.072 14.2995 394.309 14.5339 394.606 14.7109C394.908 14.8828 395.283 14.9688 395.731 14.9688ZM404.062 7.54688V8.65625H399.492V7.54688H404.062ZM401.039 5.49219H402.484V13.9062C402.484 14.1927 402.529 14.4089 402.617 14.5547C402.706 14.7005 402.82 14.7969 402.961 14.8438C403.102 14.8906 403.253 14.9141 403.414 14.9141C403.534 14.9141 403.659 14.9036 403.789 14.8828C403.924 14.8568 404.026 14.8359 404.094 14.8203L404.102 16C403.987 16.0365 403.836 16.0703 403.648 16.1016C403.466 16.138 403.245 16.1562 402.984 16.1562C402.63 16.1562 402.305 16.0859 402.008 15.9453C401.711 15.8047 401.474 15.5703 401.297 15.2422C401.125 14.9089 401.039 14.4609 401.039 13.8984V5.49219Z" fill="black"/>
<path d="M21 39.75L204 40L387 39.75M21 27V52.5M387 27V52.5M204.5 27V52.5M295 32V47.5M112.5 32V47.5" stroke="black" stroke-width="2"/>
<path d="M21 27V52.5" stroke="#B51721" stroke-width="4"/>
</svg>
