<svg width="407" height="53" viewBox="0 0 407 53" fill="none" xmlns="http://www.w3.org/2000/svg">
<path d="M5.375 10.6797H2.49219L2.47656 9.46875H5.09375C5.52604 9.46875 5.90365 9.39583 6.22656 9.25C6.54948 9.10417 6.79948 8.89583 6.97656 8.625C7.15885 8.34896 7.25 8.02083 7.25 7.64062C7.25 7.22396 7.16927 6.88542 7.00781 6.625C6.85156 6.35938 6.60938 6.16667 6.28125 6.04688C5.95833 5.92188 5.54688 5.85938 5.04688 5.85938H2.82812V16H1.32031V4.625H5.04688C5.63021 4.625 6.15104 4.6849 6.60938 4.80469C7.06771 4.91927 7.45573 5.10156 7.77344 5.35156C8.09635 5.59635 8.34115 5.90885 8.50781 6.28906C8.67448 6.66927 8.75781 7.125 8.75781 7.65625C8.75781 8.125 8.63802 8.54948 8.39844 8.92969C8.15885 9.30469 7.82552 9.61198 7.39844 9.85156C6.97656 10.0911 6.48177 10.2448 5.91406 10.3125L5.375 10.6797ZM5.30469 16H1.89844L2.75 14.7734H5.30469C5.78385 14.7734 6.1901 14.6901 6.52344 14.5234C6.86198 14.3568 7.11979 14.1224 7.29688 13.8203C7.47396 13.513 7.5625 13.151 7.5625 12.7344C7.5625 12.3125 7.48698 11.9479 7.33594 11.6406C7.1849 11.3333 6.94792 11.0964 6.625 10.9297C6.30208 10.763 5.88542 10.6797 5.375 10.6797H3.22656L3.24219 9.46875H6.17969L6.5 9.90625C7.04688 9.95312 7.51042 10.1094 7.89062 10.375C8.27083 10.6354 8.5599 10.9688 8.75781 11.375C8.96094 11.7812 9.0625 12.2292 9.0625 12.7188C9.0625 13.4271 8.90625 14.026 8.59375 14.5156C8.28646 15 7.85156 15.3698 7.28906 15.625C6.72656 15.875 6.0651 16 5.30469 16ZM12.3156 8.875V16H10.8703V7.54688H12.2766L12.3156 8.875ZM14.9563 7.5L14.9484 8.84375C14.8286 8.81771 14.7141 8.80208 14.6047 8.79688C14.5005 8.78646 14.3807 8.78125 14.2453 8.78125C13.912 8.78125 13.6177 8.83333 13.3625 8.9375C13.1073 9.04167 12.8911 9.1875 12.7141 9.375C12.537 9.5625 12.3964 9.78646 12.2922 10.0469C12.1932 10.3021 12.1281 10.5833 12.0969 10.8906L11.6906 11.125C11.6906 10.6146 11.7401 10.1354 11.8391 9.6875C11.9432 9.23958 12.1021 8.84375 12.3156 8.5C12.5292 8.15104 12.8 7.88021 13.1281 7.6875C13.4615 7.48958 13.8573 7.39062 14.3156 7.39062C14.4198 7.39062 14.5396 7.40365 14.675 7.42969C14.8104 7.45052 14.9042 7.47396 14.9563 7.5ZM15.5531 11.8672V11.6875C15.5531 11.0781 15.6417 10.513 15.8188 9.99219C15.9958 9.46615 16.251 9.01042 16.5844 8.625C16.9177 8.23438 17.3214 7.93229 17.7953 7.71875C18.2693 7.5 18.8005 7.39062 19.3891 7.39062C19.9828 7.39062 20.5167 7.5 20.9906 7.71875C21.4698 7.93229 21.876 8.23438 22.2094 8.625C22.5479 9.01042 22.8057 9.46615 22.9828 9.99219C23.1599 10.513 23.2484 11.0781 23.2484 11.6875V11.8672C23.2484 12.4766 23.1599 13.0417 22.9828 13.5625C22.8057 14.0833 22.5479 14.5391 22.2094 14.9297C21.876 15.3151 21.4724 15.6172 20.9984 15.8359C20.5297 16.0495 19.9984 16.1562 19.4047 16.1562C18.8109 16.1562 18.2771 16.0495 17.8031 15.8359C17.3292 15.6172 16.9229 15.3151 16.5844 14.9297C16.251 14.5391 15.9958 14.0833 15.8188 13.5625C15.6417 13.0417 15.5531 12.4766 15.5531 11.8672ZM16.9984 11.6875V11.8672C16.9984 12.2891 17.0479 12.6875 17.1469 13.0625C17.2458 13.4323 17.3943 13.7604 17.5922 14.0469C17.7953 14.3333 18.0479 14.5599 18.35 14.7266C18.6521 14.888 19.0036 14.9688 19.4047 14.9688C19.8005 14.9688 20.1469 14.888 20.4438 14.7266C20.7458 14.5599 20.9958 14.3333 21.1938 14.0469C21.3917 13.7604 21.5401 13.4323 21.6391 13.0625C21.7432 12.6875 21.7953 12.2891 21.7953 11.8672V11.6875C21.7953 11.2708 21.7432 10.8776 21.6391 10.5078C21.5401 10.1328 21.3891 9.80208 21.1859 9.51562C20.988 9.22396 20.738 8.99479 20.4359 8.82812C20.1391 8.66146 19.7901 8.57812 19.3891 8.57812C18.9932 8.57812 18.6443 8.66146 18.3422 8.82812C18.0453 8.99479 17.7953 9.22396 17.5922 9.51562C17.3943 9.80208 17.2458 10.1328 17.1469 10.5078C17.0479 10.8776 16.9984 11.2708 16.9984 11.6875ZM29.8453 14.5547V10.2031C29.8453 9.86979 29.7776 9.58073 29.6422 9.33594C29.512 9.08594 29.3141 8.89323 29.0484 8.75781C28.7828 8.6224 28.4547 8.55469 28.0641 8.55469C27.6995 8.55469 27.3792 8.61719 27.1031 8.74219C26.8323 8.86719 26.6187 9.03125 26.4625 9.23438C26.3115 9.4375 26.2359 9.65625 26.2359 9.89062H24.7906C24.7906 9.58854 24.8687 9.28906 25.025 8.99219C25.1812 8.69531 25.4052 8.42708 25.6969 8.1875C25.9937 7.94271 26.3479 7.75 26.7594 7.60938C27.176 7.46354 27.6396 7.39062 28.15 7.39062C28.7646 7.39062 29.3062 7.49479 29.775 7.70312C30.249 7.91146 30.6187 8.22656 30.8844 8.64844C31.1552 9.0651 31.2906 9.58854 31.2906 10.2188V14.1562C31.2906 14.4375 31.3141 14.737 31.3609 15.0547C31.413 15.3724 31.4885 15.6458 31.5875 15.875V16H30.0797C30.0068 15.8333 29.9495 15.612 29.9078 15.3359C29.8661 15.0547 29.8453 14.7943 29.8453 14.5547ZM30.0953 10.875L30.1109 11.8906H28.65C28.2385 11.8906 27.8714 11.9245 27.5484 11.9922C27.2255 12.0547 26.9547 12.151 26.7359 12.2812C26.5172 12.4115 26.3505 12.5755 26.2359 12.7734C26.1214 12.9661 26.0641 13.1927 26.0641 13.4531C26.0641 13.7188 26.124 13.9609 26.2437 14.1797C26.3635 14.3984 26.5432 14.5729 26.7828 14.7031C27.0276 14.8281 27.3271 14.8906 27.6812 14.8906C28.124 14.8906 28.5146 14.7969 28.8531 14.6094C29.1917 14.4219 29.4599 14.1927 29.6578 13.9219C29.8609 13.651 29.9703 13.388 29.9859 13.1328L30.6031 13.8281C30.5667 14.0469 30.4677 14.2891 30.3062 14.5547C30.1448 14.8203 29.9286 15.0755 29.6578 15.3203C29.3922 15.5599 29.0745 15.7604 28.7047 15.9219C28.3401 16.0781 27.9286 16.1562 27.4703 16.1562C26.8974 16.1562 26.3948 16.0443 25.9625 15.8203C25.5354 15.5964 25.2021 15.2969 24.9625 14.9219C24.7281 14.5417 24.6109 14.1172 24.6109 13.6484C24.6109 13.1953 24.6995 12.7969 24.8766 12.4531C25.0536 12.1042 25.3089 11.8151 25.6422 11.5859C25.9755 11.3516 26.3766 11.1745 26.8453 11.0547C27.3141 10.9349 27.8375 10.875 28.4156 10.875H30.0953ZM38.6922 14.3594V4H40.1453V16H38.8172L38.6922 14.3594ZM33.0047 11.8672V11.7031C33.0047 11.0573 33.0828 10.4714 33.2391 9.94531C33.4005 9.41406 33.6271 8.95833 33.9188 8.57812C34.2156 8.19792 34.5672 7.90625 34.9734 7.70312C35.3849 7.49479 35.8432 7.39062 36.3484 7.39062C36.8797 7.39062 37.3432 7.48438 37.7391 7.67188C38.1401 7.85417 38.4786 8.1224 38.7547 8.47656C39.0359 8.82552 39.2573 9.2474 39.4188 9.74219C39.5802 10.237 39.6922 10.7969 39.7547 11.4219V12.1406C39.6974 12.7604 39.5854 13.3177 39.4188 13.8125C39.2573 14.3073 39.0359 14.7292 38.7547 15.0781C38.4786 15.4271 38.1401 15.6953 37.7391 15.8828C37.338 16.0651 36.8693 16.1562 36.3328 16.1562C35.838 16.1562 35.3849 16.0495 34.9734 15.8359C34.5672 15.6224 34.2156 15.3229 33.9188 14.9375C33.6271 14.5521 33.4005 14.099 33.2391 13.5781C33.0828 13.0521 33.0047 12.4818 33.0047 11.8672ZM34.4578 11.7031V11.8672C34.4578 12.2891 34.4995 12.6849 34.5828 13.0547C34.6714 13.4245 34.8068 13.75 34.9891 14.0312C35.1714 14.3125 35.4031 14.5339 35.6844 14.6953C35.9656 14.8516 36.3016 14.9297 36.6922 14.9297C37.1714 14.9297 37.5646 14.8281 37.8719 14.625C38.1844 14.4219 38.4344 14.1536 38.6219 13.8203C38.8094 13.487 38.9552 13.125 39.0594 12.7344V10.8516C38.9969 10.5651 38.9057 10.2891 38.7859 10.0234C38.6714 9.7526 38.5203 9.51302 38.3328 9.30469C38.1505 9.09115 37.924 8.92188 37.6531 8.79688C37.3875 8.67188 37.0724 8.60938 36.7078 8.60938C36.312 8.60938 35.9708 8.69271 35.6844 8.85938C35.4031 9.02083 35.1714 9.24479 34.9891 9.53125C34.8068 9.8125 34.6714 10.1406 34.5828 10.5156C34.4995 10.8854 34.4578 11.2812 34.4578 11.7031Z" fill="black"/>
<path d="M153.32 4.625H157.086C157.94 4.625 158.661 4.75521 159.25 5.01562C159.844 5.27604 160.294 5.66146 160.602 6.17188C160.914 6.67708 161.07 7.29948 161.07 8.03906C161.07 8.5599 160.964 9.03646 160.75 9.46875C160.542 9.89583 160.24 10.2604 159.844 10.5625C159.453 10.8594 158.984 11.0807 158.438 11.2266L158.016 11.3906H154.477L154.461 10.1641H157.133C157.674 10.1641 158.125 10.0703 158.484 9.88281C158.844 9.6901 159.115 9.43229 159.297 9.10938C159.479 8.78646 159.57 8.42969 159.57 8.03906C159.57 7.60156 159.484 7.21875 159.312 6.89062C159.141 6.5625 158.87 6.3099 158.5 6.13281C158.135 5.95052 157.664 5.85938 157.086 5.85938H154.828V16H153.32V4.625ZM159.969 16L157.203 10.8438L158.773 10.8359L161.578 15.9062V16H159.969ZM166.269 16.1562C165.68 16.1562 165.146 16.0573 164.667 15.8594C164.193 15.6562 163.784 15.3724 163.441 15.0078C163.102 14.6432 162.842 14.2109 162.659 13.7109C162.477 13.2109 162.386 12.6641 162.386 12.0703V11.7422C162.386 11.0547 162.488 10.4427 162.691 9.90625C162.894 9.36458 163.17 8.90625 163.519 8.53125C163.868 8.15625 164.264 7.8724 164.706 7.67969C165.149 7.48698 165.607 7.39062 166.081 7.39062C166.685 7.39062 167.206 7.49479 167.644 7.70312C168.086 7.91146 168.448 8.20312 168.73 8.57812C169.011 8.94792 169.219 9.38542 169.355 9.89062C169.49 10.3906 169.558 10.9375 169.558 11.5312V12.1797H163.245V11H168.113V10.8906C168.092 10.5156 168.014 10.151 167.878 9.79688C167.748 9.44271 167.54 9.15104 167.253 8.92188C166.967 8.69271 166.576 8.57812 166.081 8.57812C165.753 8.57812 165.451 8.64844 165.175 8.78906C164.899 8.92448 164.662 9.1276 164.464 9.39844C164.266 9.66927 164.113 10 164.003 10.3906C163.894 10.7812 163.839 11.2318 163.839 11.7422V12.0703C163.839 12.4714 163.894 12.849 164.003 13.2031C164.118 13.5521 164.282 13.8594 164.495 14.125C164.714 14.3906 164.977 14.599 165.284 14.75C165.597 14.901 165.951 14.9766 166.347 14.9766C166.857 14.9766 167.29 14.8724 167.644 14.6641C167.998 14.4557 168.308 14.1771 168.573 13.8281L169.448 14.5234C169.266 14.7995 169.034 15.0625 168.753 15.3125C168.472 15.5625 168.126 15.7656 167.714 15.9219C167.308 16.0781 166.826 16.1562 166.269 16.1562ZM174.428 14.9688C174.772 14.9688 175.09 14.8984 175.381 14.7578C175.673 14.6172 175.913 14.4245 176.1 14.1797C176.288 13.9297 176.394 13.6458 176.42 13.3281H177.795C177.769 13.8281 177.6 14.2943 177.288 14.7266C176.98 15.1536 176.577 15.5 176.077 15.7656C175.577 16.026 175.027 16.1562 174.428 16.1562C173.793 16.1562 173.238 16.0443 172.764 15.8203C172.295 15.5964 171.905 15.2891 171.592 14.8984C171.285 14.5078 171.053 14.0599 170.897 13.5547C170.746 13.0443 170.67 12.5052 170.67 11.9375V11.6094C170.67 11.0417 170.746 10.5052 170.897 10C171.053 9.48958 171.285 9.03906 171.592 8.64844C171.905 8.25781 172.295 7.95052 172.764 7.72656C173.238 7.5026 173.793 7.39062 174.428 7.39062C175.09 7.39062 175.668 7.52604 176.163 7.79688C176.657 8.0625 177.045 8.42708 177.327 8.89062C177.613 9.34896 177.769 9.86979 177.795 10.4531H176.42C176.394 10.1042 176.295 9.78906 176.123 9.50781C175.957 9.22656 175.728 9.0026 175.436 8.83594C175.149 8.66406 174.814 8.57812 174.428 8.57812C173.985 8.57812 173.613 8.66667 173.311 8.84375C173.014 9.01562 172.777 9.25 172.6 9.54688C172.428 9.83854 172.303 10.1641 172.225 10.5234C172.152 10.8776 172.116 11.2396 172.116 11.6094V11.9375C172.116 12.3073 172.152 12.6719 172.225 13.0312C172.298 13.3906 172.42 13.7161 172.592 14.0078C172.769 14.2995 173.006 14.5339 173.303 14.7109C173.605 14.8828 173.98 14.9688 174.428 14.9688ZM178.837 11.8672V11.6875C178.837 11.0781 178.926 10.513 179.103 9.99219C179.28 9.46615 179.535 9.01042 179.869 8.625C180.202 8.23438 180.606 7.93229 181.08 7.71875C181.554 7.5 182.085 7.39062 182.673 7.39062C183.267 7.39062 183.801 7.5 184.275 7.71875C184.754 7.93229 185.16 8.23438 185.494 8.625C185.832 9.01042 186.09 9.46615 186.267 9.99219C186.444 10.513 186.533 11.0781 186.533 11.6875V11.8672C186.533 12.4766 186.444 13.0417 186.267 13.5625C186.09 14.0833 185.832 14.5391 185.494 14.9297C185.16 15.3151 184.757 15.6172 184.283 15.8359C183.814 16.0495 183.283 16.1562 182.689 16.1562C182.095 16.1562 181.561 16.0495 181.087 15.8359C180.614 15.6172 180.207 15.3151 179.869 14.9297C179.535 14.5391 179.28 14.0833 179.103 13.5625C178.926 13.0417 178.837 12.4766 178.837 11.8672ZM180.283 11.6875V11.8672C180.283 12.2891 180.332 12.6875 180.431 13.0625C180.53 13.4323 180.679 13.7604 180.877 14.0469C181.08 14.3333 181.332 14.5599 181.634 14.7266C181.936 14.888 182.288 14.9688 182.689 14.9688C183.085 14.9688 183.431 14.888 183.728 14.7266C184.03 14.5599 184.28 14.3333 184.478 14.0469C184.676 13.7604 184.824 13.4323 184.923 13.0625C185.028 12.6875 185.08 12.2891 185.08 11.8672V11.6875C185.08 11.2708 185.028 10.8776 184.923 10.5078C184.824 10.1328 184.673 9.80208 184.47 9.51562C184.272 9.22396 184.022 8.99479 183.72 8.82812C183.423 8.66146 183.074 8.57812 182.673 8.57812C182.278 8.57812 181.929 8.66146 181.627 8.82812C181.33 8.99479 181.08 9.22396 180.877 9.51562C180.679 9.80208 180.53 10.1328 180.431 10.5078C180.332 10.8776 180.283 11.2708 180.283 11.6875ZM189.583 9.22656V16H188.13V7.54688H189.505L189.583 9.22656ZM189.286 11.4531L188.614 11.4297C188.619 10.8516 188.695 10.3177 188.841 9.82812C188.986 9.33333 189.203 8.90365 189.489 8.53906C189.776 8.17448 190.132 7.89323 190.559 7.69531C190.986 7.49219 191.481 7.39062 192.044 7.39062C192.44 7.39062 192.804 7.44792 193.138 7.5625C193.471 7.67188 193.76 7.84635 194.005 8.08594C194.249 8.32552 194.44 8.63281 194.575 9.00781C194.71 9.38281 194.778 9.83594 194.778 10.3672V16H193.333V10.4375C193.333 9.99479 193.257 9.64062 193.106 9.375C192.96 9.10938 192.752 8.91667 192.481 8.79688C192.21 8.67188 191.893 8.60938 191.528 8.60938C191.101 8.60938 190.744 8.6849 190.458 8.83594C190.171 8.98698 189.942 9.19531 189.77 9.46094C189.598 9.72656 189.473 10.0312 189.395 10.375C189.322 10.7135 189.286 11.0729 189.286 11.4531ZM194.763 10.6562L193.794 10.9531C193.799 10.4896 193.874 10.0443 194.02 9.61719C194.171 9.1901 194.388 8.8099 194.669 8.47656C194.955 8.14323 195.307 7.88021 195.723 7.6875C196.14 7.48958 196.617 7.39062 197.153 7.39062C197.606 7.39062 198.007 7.45052 198.356 7.57031C198.71 7.6901 199.007 7.875 199.247 8.125C199.492 8.36979 199.677 8.6849 199.802 9.07031C199.927 9.45573 199.989 9.91406 199.989 10.4453V16H198.536V10.4297C198.536 9.95573 198.46 9.58854 198.309 9.32812C198.164 9.0625 197.955 8.8776 197.684 8.77344C197.419 8.66406 197.101 8.60938 196.731 8.60938C196.414 8.60938 196.132 8.66406 195.888 8.77344C195.643 8.88281 195.437 9.03385 195.27 9.22656C195.104 9.41406 194.976 9.63021 194.888 9.875C194.804 10.1198 194.763 10.3802 194.763 10.6562ZM203.414 9.22656V16H201.961V7.54688H203.336L203.414 9.22656ZM203.117 11.4531L202.445 11.4297C202.451 10.8516 202.526 10.3177 202.672 9.82812C202.818 9.33333 203.034 8.90365 203.32 8.53906C203.607 8.17448 203.964 7.89323 204.391 7.69531C204.818 7.49219 205.312 7.39062 205.875 7.39062C206.271 7.39062 206.635 7.44792 206.969 7.5625C207.302 7.67188 207.591 7.84635 207.836 8.08594C208.081 8.32552 208.271 8.63281 208.406 9.00781C208.542 9.38281 208.609 9.83594 208.609 10.3672V16H207.164V10.4375C207.164 9.99479 207.089 9.64062 206.938 9.375C206.792 9.10938 206.583 8.91667 206.312 8.79688C206.042 8.67188 205.724 8.60938 205.359 8.60938C204.932 8.60938 204.576 8.6849 204.289 8.83594C204.003 8.98698 203.773 9.19531 203.602 9.46094C203.43 9.72656 203.305 10.0312 203.227 10.375C203.154 10.7135 203.117 11.0729 203.117 11.4531ZM208.594 10.6562L207.625 10.9531C207.63 10.4896 207.706 10.0443 207.852 9.61719C208.003 9.1901 208.219 8.8099 208.5 8.47656C208.786 8.14323 209.138 7.88021 209.555 7.6875C209.971 7.48958 210.448 7.39062 210.984 7.39062C211.438 7.39062 211.839 7.45052 212.188 7.57031C212.542 7.6901 212.839 7.875 213.078 8.125C213.323 8.36979 213.508 8.6849 213.633 9.07031C213.758 9.45573 213.82 9.91406 213.82 10.4453V16H212.367V10.4297C212.367 9.95573 212.292 9.58854 212.141 9.32812C211.995 9.0625 211.786 8.8776 211.516 8.77344C211.25 8.66406 210.932 8.60938 210.562 8.60938C210.245 8.60938 209.964 8.66406 209.719 8.77344C209.474 8.88281 209.268 9.03385 209.102 9.22656C208.935 9.41406 208.807 9.63021 208.719 9.875C208.635 10.1198 208.594 10.3802 208.594 10.6562ZM219.316 16.1562C218.727 16.1562 218.193 16.0573 217.714 15.8594C217.24 15.6562 216.831 15.3724 216.487 15.0078C216.149 14.6432 215.889 14.2109 215.706 13.7109C215.524 13.2109 215.433 12.6641 215.433 12.0703V11.7422C215.433 11.0547 215.534 10.4427 215.737 9.90625C215.941 9.36458 216.217 8.90625 216.566 8.53125C216.915 8.15625 217.31 7.8724 217.753 7.67969C218.196 7.48698 218.654 7.39062 219.128 7.39062C219.732 7.39062 220.253 7.49479 220.691 7.70312C221.133 7.91146 221.495 8.20312 221.777 8.57812C222.058 8.94792 222.266 9.38542 222.402 9.89062C222.537 10.3906 222.605 10.9375 222.605 11.5312V12.1797H216.292V11H221.159V10.8906C221.139 10.5156 221.06 10.151 220.925 9.79688C220.795 9.44271 220.586 9.15104 220.3 8.92188C220.014 8.69271 219.623 8.57812 219.128 8.57812C218.8 8.57812 218.498 8.64844 218.222 8.78906C217.946 8.92448 217.709 9.1276 217.511 9.39844C217.313 9.66927 217.159 10 217.05 10.3906C216.941 10.7812 216.886 11.2318 216.886 11.7422V12.0703C216.886 12.4714 216.941 12.849 217.05 13.2031C217.165 13.5521 217.329 13.8594 217.542 14.125C217.761 14.3906 218.024 14.599 218.331 14.75C218.644 14.901 218.998 14.9766 219.394 14.9766C219.904 14.9766 220.336 14.8724 220.691 14.6641C221.045 14.4557 221.355 14.1771 221.62 13.8281L222.495 14.5234C222.313 14.7995 222.081 15.0625 221.8 15.3125C221.519 15.5625 221.172 15.7656 220.761 15.9219C220.355 16.0781 219.873 16.1562 219.316 16.1562ZM225.537 9.35156V16H224.092V7.54688H225.459L225.537 9.35156ZM225.194 11.4531L224.592 11.4297C224.597 10.8516 224.683 10.3177 224.85 9.82812C225.017 9.33333 225.251 8.90365 225.553 8.53906C225.855 8.17448 226.215 7.89323 226.631 7.69531C227.053 7.49219 227.519 7.39062 228.03 7.39062C228.446 7.39062 228.821 7.44792 229.155 7.5625C229.488 7.67188 229.772 7.84896 230.006 8.09375C230.246 8.33854 230.428 8.65625 230.553 9.04688C230.678 9.43229 230.741 9.90365 230.741 10.4609V16H229.287V10.4453C229.287 10.0026 229.222 9.64844 229.092 9.38281C228.962 9.11198 228.772 8.91667 228.522 8.79688C228.272 8.67188 227.965 8.60938 227.6 8.60938C227.241 8.60938 226.912 8.6849 226.616 8.83594C226.324 8.98698 226.071 9.19531 225.858 9.46094C225.649 9.72656 225.485 10.0312 225.366 10.375C225.251 10.7135 225.194 11.0729 225.194 11.4531ZM238.064 14.3594V4H239.517V16H238.189L238.064 14.3594ZM232.377 11.8672V11.7031C232.377 11.0573 232.455 10.4714 232.611 9.94531C232.772 9.41406 232.999 8.95833 233.291 8.57812C233.588 8.19792 233.939 7.90625 234.345 7.70312C234.757 7.49479 235.215 7.39062 235.72 7.39062C236.252 7.39062 236.715 7.48438 237.111 7.67188C237.512 7.85417 237.851 8.1224 238.127 8.47656C238.408 8.82552 238.629 9.2474 238.791 9.74219C238.952 10.237 239.064 10.7969 239.127 11.4219V12.1406C239.069 12.7604 238.957 13.3177 238.791 13.8125C238.629 14.3073 238.408 14.7292 238.127 15.0781C237.851 15.4271 237.512 15.6953 237.111 15.8828C236.71 16.0651 236.241 16.1562 235.705 16.1562C235.21 16.1562 234.757 16.0495 234.345 15.8359C233.939 15.6224 233.588 15.3229 233.291 14.9375C232.999 14.5521 232.772 14.099 232.611 13.5781C232.455 13.0521 232.377 12.4818 232.377 11.8672ZM233.83 11.7031V11.8672C233.83 12.2891 233.871 12.6849 233.955 13.0547C234.043 13.4245 234.179 13.75 234.361 14.0312C234.543 14.3125 234.775 14.5339 235.056 14.6953C235.338 14.8516 235.673 14.9297 236.064 14.9297C236.543 14.9297 236.936 14.8281 237.244 14.625C237.556 14.4219 237.806 14.1536 237.994 13.8203C238.181 13.487 238.327 13.125 238.431 12.7344V10.8516C238.369 10.5651 238.278 10.2891 238.158 10.0234C238.043 9.7526 237.892 9.51302 237.705 9.30469C237.522 9.09115 237.296 8.92188 237.025 8.79688C236.759 8.67188 236.444 8.60938 236.08 8.60938C235.684 8.60938 235.343 8.69271 235.056 8.85938C234.775 9.02083 234.543 9.24479 234.361 9.53125C234.179 9.8125 234.043 10.1406 233.955 10.5156C233.871 10.8854 233.83 11.2812 233.83 11.7031ZM245.075 16.1562C244.486 16.1562 243.953 16.0573 243.473 15.8594C242.999 15.6562 242.591 15.3724 242.247 15.0078C241.908 14.6432 241.648 14.2109 241.466 13.7109C241.283 13.2109 241.192 12.6641 241.192 12.0703V11.7422C241.192 11.0547 241.294 10.4427 241.497 9.90625C241.7 9.36458 241.976 8.90625 242.325 8.53125C242.674 8.15625 243.07 7.8724 243.512 7.67969C243.955 7.48698 244.414 7.39062 244.887 7.39062C245.492 7.39062 246.012 7.49479 246.45 7.70312C246.893 7.91146 247.255 8.20312 247.536 8.57812C247.817 8.94792 248.026 9.38542 248.161 9.89062C248.296 10.3906 248.364 10.9375 248.364 11.5312V12.1797H242.052V11H246.919V10.8906C246.898 10.5156 246.82 10.151 246.684 9.79688C246.554 9.44271 246.346 9.15104 246.059 8.92188C245.773 8.69271 245.382 8.57812 244.887 8.57812C244.559 8.57812 244.257 8.64844 243.981 8.78906C243.705 8.92448 243.468 9.1276 243.27 9.39844C243.072 9.66927 242.919 10 242.809 10.3906C242.7 10.7812 242.645 11.2318 242.645 11.7422V12.0703C242.645 12.4714 242.7 12.849 242.809 13.2031C242.924 13.5521 243.088 13.8594 243.302 14.125C243.52 14.3906 243.783 14.599 244.091 14.75C244.403 14.901 244.757 14.9766 245.153 14.9766C245.664 14.9766 246.096 14.8724 246.45 14.6641C246.804 14.4557 247.114 14.1771 247.38 13.8281L248.255 14.5234C248.072 14.7995 247.841 15.0625 247.559 15.3125C247.278 15.5625 246.932 15.7656 246.52 15.9219C246.114 16.0781 245.632 16.1562 245.075 16.1562ZM255.18 14.3594V4H256.633V16H255.305L255.18 14.3594ZM249.492 11.8672V11.7031C249.492 11.0573 249.57 10.4714 249.727 9.94531C249.888 9.41406 250.115 8.95833 250.406 8.57812C250.703 8.19792 251.055 7.90625 251.461 7.70312C251.872 7.49479 252.331 7.39062 252.836 7.39062C253.367 7.39062 253.831 7.48438 254.227 7.67188C254.628 7.85417 254.966 8.1224 255.242 8.47656C255.523 8.82552 255.745 9.2474 255.906 9.74219C256.068 10.237 256.18 10.7969 256.242 11.4219V12.1406C256.185 12.7604 256.073 13.3177 255.906 13.8125C255.745 14.3073 255.523 14.7292 255.242 15.0781C254.966 15.4271 254.628 15.6953 254.227 15.8828C253.826 16.0651 253.357 16.1562 252.82 16.1562C252.326 16.1562 251.872 16.0495 251.461 15.8359C251.055 15.6224 250.703 15.3229 250.406 14.9375C250.115 14.5521 249.888 14.099 249.727 13.5781C249.57 13.0521 249.492 12.4818 249.492 11.8672ZM250.945 11.7031V11.8672C250.945 12.2891 250.987 12.6849 251.07 13.0547C251.159 13.4245 251.294 13.75 251.477 14.0312C251.659 14.3125 251.891 14.5339 252.172 14.6953C252.453 14.8516 252.789 14.9297 253.18 14.9297C253.659 14.9297 254.052 14.8281 254.359 14.625C254.672 14.4219 254.922 14.1536 255.109 13.8203C255.297 13.487 255.443 13.125 255.547 12.7344V10.8516C255.484 10.5651 255.393 10.2891 255.273 10.0234C255.159 9.7526 255.008 9.51302 254.82 9.30469C254.638 9.09115 254.411 8.92188 254.141 8.79688C253.875 8.67188 253.56 8.60938 253.195 8.60938C252.799 8.60938 252.458 8.69271 252.172 8.85938C251.891 9.02083 251.659 9.24479 251.477 9.53125C251.294 9.8125 251.159 10.1406 251.07 10.5156C250.987 10.8854 250.945 11.2812 250.945 11.7031Z" fill="black"/>
<path d="M374.938 13.0234C374.938 12.8203 374.906 12.638 374.844 12.4766C374.786 12.3099 374.677 12.1589 374.516 12.0234C374.354 11.8828 374.128 11.7448 373.836 11.6094C373.544 11.474 373.167 11.3333 372.703 11.1875C372.188 11.0208 371.698 10.8333 371.234 10.625C370.776 10.4167 370.37 10.1745 370.016 9.89844C369.667 9.61719 369.391 9.29167 369.188 8.92188C368.99 8.55208 368.891 8.1224 368.891 7.63281C368.891 7.15885 368.995 6.72917 369.203 6.34375C369.411 5.95312 369.703 5.61979 370.078 5.34375C370.453 5.0625 370.896 4.84635 371.406 4.69531C371.922 4.54427 372.487 4.46875 373.102 4.46875C373.94 4.46875 374.672 4.61979 375.297 4.92188C375.922 5.22396 376.406 5.63802 376.75 6.16406C377.099 6.6901 377.273 7.29167 377.273 7.96875H374.945C374.945 7.63542 374.875 7.34375 374.734 7.09375C374.599 6.83854 374.391 6.63802 374.109 6.49219C373.833 6.34635 373.484 6.27344 373.062 6.27344C372.656 6.27344 372.318 6.33594 372.047 6.46094C371.776 6.58073 371.573 6.74479 371.438 6.95312C371.302 7.15625 371.234 7.38542 371.234 7.64062C371.234 7.83333 371.281 8.00781 371.375 8.16406C371.474 8.32031 371.62 8.46615 371.812 8.60156C372.005 8.73698 372.242 8.86458 372.523 8.98438C372.805 9.10417 373.13 9.22135 373.5 9.33594C374.12 9.52344 374.664 9.73438 375.133 9.96875C375.607 10.2031 376.003 10.4661 376.32 10.7578C376.638 11.0495 376.878 11.3802 377.039 11.75C377.201 12.1198 377.281 12.5391 377.281 13.0078C377.281 13.5026 377.185 13.9453 376.992 14.3359C376.799 14.7266 376.521 15.0573 376.156 15.3281C375.792 15.599 375.357 15.8047 374.852 15.9453C374.346 16.0859 373.781 16.1562 373.156 16.1562C372.594 16.1562 372.039 16.0833 371.492 15.9375C370.945 15.7865 370.448 15.5599 370 15.2578C369.557 14.9557 369.203 14.5703 368.938 14.1016C368.672 13.6328 368.539 13.0781 368.539 12.4375H370.891C370.891 12.7917 370.945 13.0911 371.055 13.3359C371.164 13.5807 371.318 13.7786 371.516 13.9297C371.719 14.0807 371.958 14.1901 372.234 14.2578C372.516 14.3255 372.823 14.3594 373.156 14.3594C373.562 14.3594 373.896 14.3021 374.156 14.1875C374.422 14.0729 374.617 13.9141 374.742 13.7109C374.872 13.5078 374.938 13.2786 374.938 13.0234ZM382.675 7.54688V9.14062H377.753V7.54688H382.675ZM378.972 5.46094H381.222V13.4531C381.222 13.6979 381.253 13.8854 381.316 14.0156C381.383 14.1458 381.482 14.237 381.613 14.2891C381.743 14.3359 381.907 14.3594 382.105 14.3594C382.245 14.3594 382.37 14.3542 382.48 14.3438C382.594 14.3281 382.691 14.3125 382.769 14.2969L382.777 15.9531C382.584 16.0156 382.376 16.0651 382.152 16.1016C381.928 16.138 381.68 16.1562 381.409 16.1562C380.915 16.1562 380.482 16.0755 380.113 15.9141C379.748 15.7474 379.467 15.4818 379.269 15.1172C379.071 14.7526 378.972 14.2734 378.972 13.6797V5.46094ZM386.006 9.39062V16H383.756V7.54688H385.873L386.006 9.39062ZM388.553 7.49219L388.514 9.57812C388.405 9.5625 388.272 9.54948 388.116 9.53906C387.965 9.52344 387.827 9.51562 387.702 9.51562C387.384 9.51562 387.108 9.55729 386.873 9.64062C386.644 9.71875 386.452 9.83594 386.295 9.99219C386.144 10.1484 386.03 10.3385 385.952 10.5625C385.879 10.7865 385.837 11.0417 385.827 11.3281L385.373 11.1875C385.373 10.6406 385.428 10.138 385.538 9.67969C385.647 9.21615 385.806 8.8125 386.014 8.46875C386.228 8.125 386.488 7.85938 386.795 7.67188C387.103 7.48438 387.454 7.39062 387.85 7.39062C387.975 7.39062 388.103 7.40104 388.233 7.42188C388.363 7.4375 388.47 7.46094 388.553 7.49219ZM391.791 7.54688V16H389.533V7.54688H391.791ZM389.392 5.34375C389.392 5.01562 389.507 4.74479 389.736 4.53125C389.965 4.31771 390.272 4.21094 390.658 4.21094C391.038 4.21094 391.343 4.31771 391.572 4.53125C391.806 4.74479 391.923 5.01562 391.923 5.34375C391.923 5.67188 391.806 5.94271 391.572 6.15625C391.343 6.36979 391.038 6.47656 390.658 6.47656C390.272 6.47656 389.965 6.36979 389.736 6.15625C389.507 5.94271 389.392 5.67188 389.392 5.34375ZM396.942 14.3984C397.218 14.3984 397.463 14.3464 397.677 14.2422C397.89 14.1328 398.057 13.9818 398.177 13.7891C398.302 13.5911 398.367 13.3594 398.372 13.0938H400.489C400.484 13.6875 400.325 14.2161 400.013 14.6797C399.7 15.138 399.281 15.5 398.755 15.7656C398.229 16.026 397.64 16.1562 396.989 16.1562C396.333 16.1562 395.76 16.0469 395.27 15.8281C394.786 15.6094 394.382 15.3073 394.059 14.9219C393.736 14.5312 393.494 14.0781 393.333 13.5625C393.171 13.0417 393.091 12.4844 393.091 11.8906V11.6641C393.091 11.0651 393.171 10.5078 393.333 9.99219C393.494 9.47135 393.736 9.01823 394.059 8.63281C394.382 8.24219 394.786 7.9375 395.27 7.71875C395.755 7.5 396.322 7.39062 396.973 7.39062C397.666 7.39062 398.273 7.52344 398.794 7.78906C399.32 8.05469 399.731 8.4349 400.028 8.92969C400.33 9.41927 400.484 10 400.489 10.6719H398.372C398.367 10.3906 398.307 10.1354 398.192 9.90625C398.083 9.67708 397.921 9.49479 397.708 9.35938C397.499 9.21875 397.242 9.14844 396.934 9.14844C396.606 9.14844 396.338 9.21875 396.13 9.35938C395.921 9.49479 395.76 9.68229 395.645 9.92188C395.531 10.1562 395.45 10.4245 395.403 10.7266C395.361 11.0234 395.341 11.3359 395.341 11.6641V11.8906C395.341 12.2188 395.361 12.5339 395.403 12.8359C395.445 13.138 395.523 13.4062 395.638 13.6406C395.757 13.875 395.921 14.0599 396.13 14.1953C396.338 14.3307 396.609 14.3984 396.942 14.3984ZM405.734 7.54688V9.14062H400.812V7.54688H405.734ZM402.031 5.46094H404.281V13.4531C404.281 13.6979 404.312 13.8854 404.375 14.0156C404.443 14.1458 404.542 14.237 404.672 14.2891C404.802 14.3359 404.966 14.3594 405.164 14.3594C405.305 14.3594 405.43 14.3542 405.539 14.3438C405.654 14.3281 405.75 14.3125 405.828 14.2969L405.836 15.9531C405.643 16.0156 405.435 16.0651 405.211 16.1016C404.987 16.138 404.74 16.1562 404.469 16.1562C403.974 16.1562 403.542 16.0755 403.172 15.9141C402.807 15.7474 402.526 15.4818 402.328 15.1172C402.13 14.7526 402.031 14.2734 402.031 13.6797V5.46094Z" fill="black"/>
<path d="M21 39.75L204 40L387 39.75M21 27V52.5M387 27V52.5M204.5 27V52.5M295 32V47.5M112.5 32V47.5" stroke="black" stroke-width="2"/>
<path d="M387 27V52.5" stroke="#00823B" stroke-width="4"/>
</svg>
