<svg width="405" height="53" viewBox="0 0 405 53" fill="none" xmlns="http://www.w3.org/2000/svg">
<path d="M5.375 10.6797H2.49219L2.47656 9.46875H5.09375C5.52604 9.46875 5.90365 9.39583 6.22656 9.25C6.54948 9.10417 6.79948 8.89583 6.97656 8.625C7.15885 8.34896 7.25 8.02083 7.25 7.64062C7.25 7.22396 7.16927 6.88542 7.00781 6.625C6.85156 6.35938 6.60938 6.16667 6.28125 6.04688C5.95833 5.92188 5.54688 5.85938 5.04688 5.85938H2.82812V16H1.32031V4.625H5.04688C5.63021 4.625 6.15104 4.6849 6.60938 4.80469C7.06771 4.91927 7.45573 5.10156 7.77344 5.35156C8.09635 5.59635 8.34115 5.90885 8.50781 6.28906C8.67448 6.66927 8.75781 7.125 8.75781 7.65625C8.75781 8.125 8.63802 8.54948 8.39844 8.92969C8.15885 9.30469 7.82552 9.61198 7.39844 9.85156C6.97656 10.0911 6.48177 10.2448 5.91406 10.3125L5.375 10.6797ZM5.30469 16H1.89844L2.75 14.7734H5.30469C5.78385 14.7734 6.1901 14.6901 6.52344 14.5234C6.86198 14.3568 7.11979 14.1224 7.29688 13.8203C7.47396 13.513 7.5625 13.151 7.5625 12.7344C7.5625 12.3125 7.48698 11.9479 7.33594 11.6406C7.1849 11.3333 6.94792 11.0964 6.625 10.9297C6.30208 10.763 5.88542 10.6797 5.375 10.6797H3.22656L3.24219 9.46875H6.17969L6.5 9.90625C7.04688 9.95312 7.51042 10.1094 7.89062 10.375C8.27083 10.6354 8.5599 10.9688 8.75781 11.375C8.96094 11.7812 9.0625 12.2292 9.0625 12.7188C9.0625 13.4271 8.90625 14.026 8.59375 14.5156C8.28646 15 7.85156 15.3698 7.28906 15.625C6.72656 15.875 6.0651 16 5.30469 16ZM12.3156 8.875V16H10.8703V7.54688H12.2766L12.3156 8.875ZM14.9563 7.5L14.9484 8.84375C14.8286 8.81771 14.7141 8.80208 14.6047 8.79688C14.5005 8.78646 14.3807 8.78125 14.2453 8.78125C13.912 8.78125 13.6177 8.83333 13.3625 8.9375C13.1073 9.04167 12.8911 9.1875 12.7141 9.375C12.537 9.5625 12.3964 9.78646 12.2922 10.0469C12.1932 10.3021 12.1281 10.5833 12.0969 10.8906L11.6906 11.125C11.6906 10.6146 11.7401 10.1354 11.8391 9.6875C11.9432 9.23958 12.1021 8.84375 12.3156 8.5C12.5292 8.15104 12.8 7.88021 13.1281 7.6875C13.4615 7.48958 13.8573 7.39062 14.3156 7.39062C14.4198 7.39062 14.5396 7.40365 14.675 7.42969C14.8104 7.45052 14.9042 7.47396 14.9563 7.5ZM15.5531 11.8672V11.6875C15.5531 11.0781 15.6417 10.513 15.8188 9.99219C15.9958 9.46615 16.251 9.01042 16.5844 8.625C16.9177 8.23438 17.3214 7.93229 17.7953 7.71875C18.2693 7.5 18.8005 7.39062 19.3891 7.39062C19.9828 7.39062 20.5167 7.5 20.9906 7.71875C21.4698 7.93229 21.876 8.23438 22.2094 8.625C22.5479 9.01042 22.8057 9.46615 22.9828 9.99219C23.1599 10.513 23.2484 11.0781 23.2484 11.6875V11.8672C23.2484 12.4766 23.1599 13.0417 22.9828 13.5625C22.8057 14.0833 22.5479 14.5391 22.2094 14.9297C21.876 15.3151 21.4724 15.6172 20.9984 15.8359C20.5297 16.0495 19.9984 16.1562 19.4047 16.1562C18.8109 16.1562 18.2771 16.0495 17.8031 15.8359C17.3292 15.6172 16.9229 15.3151 16.5844 14.9297C16.251 14.5391 15.9958 14.0833 15.8188 13.5625C15.6417 13.0417 15.5531 12.4766 15.5531 11.8672ZM16.9984 11.6875V11.8672C16.9984 12.2891 17.0479 12.6875 17.1469 13.0625C17.2458 13.4323 17.3943 13.7604 17.5922 14.0469C17.7953 14.3333 18.0479 14.5599 18.35 14.7266C18.6521 14.888 19.0036 14.9688 19.4047 14.9688C19.8005 14.9688 20.1469 14.888 20.4438 14.7266C20.7458 14.5599 20.9958 14.3333 21.1938 14.0469C21.3917 13.7604 21.5401 13.4323 21.6391 13.0625C21.7432 12.6875 21.7953 12.2891 21.7953 11.8672V11.6875C21.7953 11.2708 21.7432 10.8776 21.6391 10.5078C21.5401 10.1328 21.3891 9.80208 21.1859 9.51562C20.988 9.22396 20.738 8.99479 20.4359 8.82812C20.1391 8.66146 19.7901 8.57812 19.3891 8.57812C18.9932 8.57812 18.6443 8.66146 18.3422 8.82812C18.0453 8.99479 17.7953 9.22396 17.5922 9.51562C17.3943 9.80208 17.2458 10.1328 17.1469 10.5078C17.0479 10.8776 16.9984 11.2708 16.9984 11.6875ZM29.8453 14.5547V10.2031C29.8453 9.86979 29.7776 9.58073 29.6422 9.33594C29.512 9.08594 29.3141 8.89323 29.0484 8.75781C28.7828 8.6224 28.4547 8.55469 28.0641 8.55469C27.6995 8.55469 27.3792 8.61719 27.1031 8.74219C26.8323 8.86719 26.6187 9.03125 26.4625 9.23438C26.3115 9.4375 26.2359 9.65625 26.2359 9.89062H24.7906C24.7906 9.58854 24.8687 9.28906 25.025 8.99219C25.1812 8.69531 25.4052 8.42708 25.6969 8.1875C25.9937 7.94271 26.3479 7.75 26.7594 7.60938C27.176 7.46354 27.6396 7.39062 28.15 7.39062C28.7646 7.39062 29.3062 7.49479 29.775 7.70312C30.249 7.91146 30.6187 8.22656 30.8844 8.64844C31.1552 9.0651 31.2906 9.58854 31.2906 10.2188V14.1562C31.2906 14.4375 31.3141 14.737 31.3609 15.0547C31.413 15.3724 31.4885 15.6458 31.5875 15.875V16H30.0797C30.0068 15.8333 29.9495 15.612 29.9078 15.3359C29.8661 15.0547 29.8453 14.7943 29.8453 14.5547ZM30.0953 10.875L30.1109 11.8906H28.65C28.2385 11.8906 27.8714 11.9245 27.5484 11.9922C27.2255 12.0547 26.9547 12.151 26.7359 12.2812C26.5172 12.4115 26.3505 12.5755 26.2359 12.7734C26.1214 12.9661 26.0641 13.1927 26.0641 13.4531C26.0641 13.7188 26.124 13.9609 26.2437 14.1797C26.3635 14.3984 26.5432 14.5729 26.7828 14.7031C27.0276 14.8281 27.3271 14.8906 27.6812 14.8906C28.124 14.8906 28.5146 14.7969 28.8531 14.6094C29.1917 14.4219 29.4599 14.1927 29.6578 13.9219C29.8609 13.651 29.9703 13.388 29.9859 13.1328L30.6031 13.8281C30.5667 14.0469 30.4677 14.2891 30.3062 14.5547C30.1448 14.8203 29.9286 15.0755 29.6578 15.3203C29.3922 15.5599 29.0745 15.7604 28.7047 15.9219C28.3401 16.0781 27.9286 16.1562 27.4703 16.1562C26.8974 16.1562 26.3948 16.0443 25.9625 15.8203C25.5354 15.5964 25.2021 15.2969 24.9625 14.9219C24.7281 14.5417 24.6109 14.1172 24.6109 13.6484C24.6109 13.1953 24.6995 12.7969 24.8766 12.4531C25.0536 12.1042 25.3089 11.8151 25.6422 11.5859C25.9755 11.3516 26.3766 11.1745 26.8453 11.0547C27.3141 10.9349 27.8375 10.875 28.4156 10.875H30.0953ZM38.6922 14.3594V4H40.1453V16H38.8172L38.6922 14.3594ZM33.0047 11.8672V11.7031C33.0047 11.0573 33.0828 10.4714 33.2391 9.94531C33.4005 9.41406 33.6271 8.95833 33.9188 8.57812C34.2156 8.19792 34.5672 7.90625 34.9734 7.70312C35.3849 7.49479 35.8432 7.39062 36.3484 7.39062C36.8797 7.39062 37.3432 7.48438 37.7391 7.67188C38.1401 7.85417 38.4786 8.1224 38.7547 8.47656C39.0359 8.82552 39.2573 9.2474 39.4188 9.74219C39.5802 10.237 39.6922 10.7969 39.7547 11.4219V12.1406C39.6974 12.7604 39.5854 13.3177 39.4188 13.8125C39.2573 14.3073 39.0359 14.7292 38.7547 15.0781C38.4786 15.4271 38.1401 15.6953 37.7391 15.8828C37.338 16.0651 36.8693 16.1562 36.3328 16.1562C35.838 16.1562 35.3849 16.0495 34.9734 15.8359C34.5672 15.6224 34.2156 15.3229 33.9188 14.9375C33.6271 14.5521 33.4005 14.099 33.2391 13.5781C33.0828 13.0521 33.0047 12.4818 33.0047 11.8672ZM34.4578 11.7031V11.8672C34.4578 12.2891 34.4995 12.6849 34.5828 13.0547C34.6714 13.4245 34.8068 13.75 34.9891 14.0312C35.1714 14.3125 35.4031 14.5339 35.6844 14.6953C35.9656 14.8516 36.3016 14.9297 36.6922 14.9297C37.1714 14.9297 37.5646 14.8281 37.8719 14.625C38.1844 14.4219 38.4344 14.1536 38.6219 13.8203C38.8094 13.487 38.9552 13.125 39.0594 12.7344V10.8516C38.9969 10.5651 38.9057 10.2891 38.7859 10.0234C38.6714 9.7526 38.5203 9.51302 38.3328 9.30469C38.1505 9.09115 37.924 8.92188 37.6531 8.79688C37.3875 8.67188 37.0724 8.60938 36.7078 8.60938C36.312 8.60938 35.9708 8.69271 35.6844 8.85938C35.4031 9.02083 35.1714 9.24479 34.9891 9.53125C34.8068 9.8125 34.6714 10.1406 34.5828 10.5156C34.4995 10.8854 34.4578 11.2812 34.4578 11.7031Z" fill="black"/>
<path d="M153.016 4.625H157.258C158.128 4.625 158.875 4.75521 159.5 5.01562C160.13 5.27604 160.615 5.66146 160.953 6.17188C161.292 6.68229 161.461 7.3099 161.461 8.05469C161.461 8.66406 161.357 9.1875 161.148 9.625C160.945 10.0573 160.656 10.4193 160.281 10.7109C159.911 10.9974 159.477 11.2266 158.977 11.3984L158.234 11.7891H154.547L154.531 9.96094H157.273C157.685 9.96094 158.026 9.88802 158.297 9.74219C158.568 9.59635 158.771 9.39323 158.906 9.13281C159.047 8.8724 159.117 8.57031 159.117 8.22656C159.117 7.86198 159.049 7.54688 158.914 7.28125C158.779 7.01562 158.573 6.8125 158.297 6.67188C158.021 6.53125 157.674 6.46094 157.258 6.46094H155.359V16H153.016V4.625ZM159.375 16L156.781 10.9297L159.258 10.9141L161.883 15.8906V16H159.375ZM166.816 16.1562C166.159 16.1562 165.571 16.0521 165.05 15.8438C164.529 15.6302 164.086 15.3359 163.722 14.9609C163.363 14.5859 163.086 14.151 162.894 13.6562C162.701 13.1562 162.605 12.625 162.605 12.0625V11.75C162.605 11.1094 162.696 10.5234 162.878 9.99219C163.06 9.46094 163.321 9 163.659 8.60938C164.003 8.21875 164.42 7.91927 164.909 7.71094C165.399 7.4974 165.951 7.39062 166.566 7.39062C167.165 7.39062 167.696 7.48958 168.159 7.6875C168.623 7.88542 169.011 8.16667 169.323 8.53125C169.641 8.89583 169.881 9.33333 170.042 9.84375C170.204 10.349 170.284 10.9115 170.284 11.5312V12.4688H163.566V10.9688H168.073V10.7969C168.073 10.4844 168.016 10.2057 167.902 9.96094C167.792 9.71094 167.626 9.51302 167.402 9.36719C167.178 9.22135 166.891 9.14844 166.542 9.14844C166.245 9.14844 165.99 9.21354 165.777 9.34375C165.563 9.47396 165.389 9.65625 165.253 9.89062C165.123 10.125 165.024 10.401 164.956 10.7188C164.894 11.0312 164.863 11.375 164.863 11.75V12.0625C164.863 12.401 164.909 12.7135 165.003 13C165.102 13.2865 165.24 13.5339 165.417 13.7422C165.599 13.9505 165.818 14.112 166.073 14.2266C166.334 14.3411 166.628 14.3984 166.956 14.3984C167.363 14.3984 167.74 14.3203 168.089 14.1641C168.443 14.0026 168.748 13.7604 169.003 13.4375L170.097 14.625C169.92 14.8802 169.678 15.125 169.37 15.3594C169.068 15.5938 168.704 15.7865 168.277 15.9375C167.849 16.0833 167.363 16.1562 166.816 16.1562ZM174.858 14.3984C175.134 14.3984 175.379 14.3464 175.592 14.2422C175.806 14.1328 175.972 13.9818 176.092 13.7891C176.217 13.5911 176.282 13.3594 176.288 13.0938H178.405C178.399 13.6875 178.241 14.2161 177.928 14.6797C177.616 15.138 177.196 15.5 176.67 15.7656C176.144 16.026 175.556 16.1562 174.905 16.1562C174.248 16.1562 173.676 16.0469 173.186 15.8281C172.702 15.6094 172.298 15.3073 171.975 14.9219C171.652 14.5312 171.41 14.0781 171.248 13.5625C171.087 13.0417 171.006 12.4844 171.006 11.8906V11.6641C171.006 11.0651 171.087 10.5078 171.248 9.99219C171.41 9.47135 171.652 9.01823 171.975 8.63281C172.298 8.24219 172.702 7.9375 173.186 7.71875C173.67 7.5 174.238 7.39062 174.889 7.39062C175.582 7.39062 176.189 7.52344 176.709 7.78906C177.235 8.05469 177.647 8.4349 177.944 8.92969C178.246 9.41927 178.399 10 178.405 10.6719H176.288C176.282 10.3906 176.222 10.1354 176.108 9.90625C175.998 9.67708 175.837 9.49479 175.623 9.35938C175.415 9.21875 175.157 9.14844 174.85 9.14844C174.522 9.14844 174.254 9.21875 174.045 9.35938C173.837 9.49479 173.676 9.68229 173.561 9.92188C173.446 10.1562 173.366 10.4245 173.319 10.7266C173.277 11.0234 173.256 11.3359 173.256 11.6641V11.8906C173.256 12.2188 173.277 12.5339 173.319 12.8359C173.36 13.138 173.439 13.4062 173.553 13.6406C173.673 13.875 173.837 14.0599 174.045 14.1953C174.254 14.3307 174.524 14.3984 174.858 14.3984ZM179.15 11.8594V11.6953C179.15 11.0755 179.239 10.5052 179.416 9.98438C179.593 9.45833 179.851 9.0026 180.189 8.61719C180.528 8.23177 180.944 7.93229 181.439 7.71875C181.934 7.5 182.502 7.39062 183.142 7.39062C183.783 7.39062 184.353 7.5 184.853 7.71875C185.353 7.93229 185.772 8.23177 186.111 8.61719C186.455 9.0026 186.715 9.45833 186.892 9.98438C187.069 10.5052 187.158 11.0755 187.158 11.6953V11.8594C187.158 12.474 187.069 13.0443 186.892 13.5703C186.715 14.0911 186.455 14.5469 186.111 14.9375C185.772 15.3229 185.356 15.6224 184.861 15.8359C184.366 16.0495 183.798 16.1562 183.158 16.1562C182.517 16.1562 181.947 16.0495 181.447 15.8359C180.952 15.6224 180.533 15.3229 180.189 14.9375C179.851 14.5469 179.593 14.0911 179.416 13.5703C179.239 13.0443 179.15 12.474 179.15 11.8594ZM181.4 11.6953V11.8594C181.4 12.2135 181.431 12.5443 181.494 12.8516C181.556 13.1589 181.655 13.4297 181.791 13.6641C181.931 13.8932 182.114 14.0729 182.337 14.2031C182.561 14.3333 182.835 14.3984 183.158 14.3984C183.47 14.3984 183.739 14.3333 183.962 14.2031C184.186 14.0729 184.366 13.8932 184.502 13.6641C184.637 13.4297 184.736 13.1589 184.798 12.8516C184.866 12.5443 184.9 12.2135 184.9 11.8594V11.6953C184.9 11.3516 184.866 11.0286 184.798 10.7266C184.736 10.4193 184.634 10.1484 184.494 9.91406C184.358 9.67448 184.179 9.48698 183.955 9.35156C183.731 9.21615 183.46 9.14844 183.142 9.14844C182.824 9.14844 182.554 9.21615 182.33 9.35156C182.111 9.48698 181.931 9.67448 181.791 9.91406C181.655 10.1484 181.556 10.4193 181.494 10.7266C181.431 11.0286 181.4 11.3516 181.4 11.6953ZM190.591 9.29688V16H188.333V7.54688H190.45L190.591 9.29688ZM190.278 11.4766H189.653C189.653 10.888 189.723 10.3464 189.864 9.85156C190.01 9.35156 190.221 8.91927 190.497 8.55469C190.778 8.1849 191.124 7.89844 191.536 7.69531C191.947 7.49219 192.424 7.39062 192.966 7.39062C193.341 7.39062 193.684 7.44792 193.997 7.5625C194.309 7.67188 194.578 7.84635 194.802 8.08594C195.031 8.32031 195.208 8.6276 195.333 9.00781C195.458 9.38281 195.52 9.83333 195.52 10.3594V16H193.27V10.6094C193.27 10.224 193.218 9.92708 193.114 9.71875C193.01 9.51042 192.861 9.36458 192.669 9.28125C192.481 9.19792 192.255 9.15625 191.989 9.15625C191.697 9.15625 191.442 9.21615 191.223 9.33594C191.01 9.45573 190.833 9.6224 190.692 9.83594C190.552 10.0443 190.447 10.2891 190.38 10.5703C190.312 10.8516 190.278 11.1536 190.278 11.4766ZM195.309 11.2188L194.505 11.3203C194.505 10.7682 194.572 10.2552 194.708 9.78125C194.848 9.30729 195.054 8.89062 195.325 8.53125C195.601 8.17188 195.942 7.89323 196.348 7.69531C196.755 7.49219 197.223 7.39062 197.755 7.39062C198.161 7.39062 198.531 7.45052 198.864 7.57031C199.197 7.6849 199.481 7.86979 199.716 8.125C199.955 8.375 200.138 8.70312 200.263 9.10938C200.393 9.51562 200.458 10.013 200.458 10.6016V16H198.2V10.6016C198.2 10.2109 198.148 9.91406 198.044 9.71094C197.945 9.5026 197.799 9.35938 197.606 9.28125C197.419 9.19792 197.195 9.15625 196.934 9.15625C196.664 9.15625 196.427 9.21094 196.223 9.32031C196.02 9.42448 195.851 9.57031 195.716 9.75781C195.58 9.94531 195.479 10.1641 195.411 10.4141C195.343 10.6589 195.309 10.9271 195.309 11.2188ZM204.25 9.29688V16H201.992V7.54688H204.109L204.25 9.29688ZM203.938 11.4766H203.312C203.312 10.888 203.383 10.3464 203.523 9.85156C203.669 9.35156 203.88 8.91927 204.156 8.55469C204.438 8.1849 204.784 7.89844 205.195 7.69531C205.607 7.49219 206.083 7.39062 206.625 7.39062C207 7.39062 207.344 7.44792 207.656 7.5625C207.969 7.67188 208.237 7.84635 208.461 8.08594C208.69 8.32031 208.867 8.6276 208.992 9.00781C209.117 9.38281 209.18 9.83333 209.18 10.3594V16H206.93V10.6094C206.93 10.224 206.878 9.92708 206.773 9.71875C206.669 9.51042 206.521 9.36458 206.328 9.28125C206.141 9.19792 205.914 9.15625 205.648 9.15625C205.357 9.15625 205.102 9.21615 204.883 9.33594C204.669 9.45573 204.492 9.6224 204.352 9.83594C204.211 10.0443 204.107 10.2891 204.039 10.5703C203.971 10.8516 203.938 11.1536 203.938 11.4766ZM208.969 11.2188L208.164 11.3203C208.164 10.7682 208.232 10.2552 208.367 9.78125C208.508 9.30729 208.714 8.89062 208.984 8.53125C209.26 8.17188 209.602 7.89323 210.008 7.69531C210.414 7.49219 210.883 7.39062 211.414 7.39062C211.82 7.39062 212.19 7.45052 212.523 7.57031C212.857 7.6849 213.141 7.86979 213.375 8.125C213.615 8.375 213.797 8.70312 213.922 9.10938C214.052 9.51562 214.117 10.013 214.117 10.6016V16H211.859V10.6016C211.859 10.2109 211.807 9.91406 211.703 9.71094C211.604 9.5026 211.458 9.35938 211.266 9.28125C211.078 9.19792 210.854 9.15625 210.594 9.15625C210.323 9.15625 210.086 9.21094 209.883 9.32031C209.68 9.42448 209.51 9.57031 209.375 9.75781C209.24 9.94531 209.138 10.1641 209.07 10.4141C209.003 10.6589 208.969 10.9271 208.969 11.2188ZM219.55 16.1562C218.894 16.1562 218.305 16.0521 217.784 15.8438C217.264 15.6302 216.821 15.3359 216.456 14.9609C216.097 14.5859 215.821 14.151 215.628 13.6562C215.435 13.1562 215.339 12.625 215.339 12.0625V11.75C215.339 11.1094 215.43 10.5234 215.612 9.99219C215.795 9.46094 216.055 9 216.394 8.60938C216.737 8.21875 217.154 7.91927 217.644 7.71094C218.133 7.4974 218.685 7.39062 219.3 7.39062C219.899 7.39062 220.43 7.48958 220.894 7.6875C221.357 7.88542 221.745 8.16667 222.058 8.53125C222.376 8.89583 222.615 9.33333 222.777 9.84375C222.938 10.349 223.019 10.9115 223.019 11.5312V12.4688H216.3V10.9688H220.808V10.7969C220.808 10.4844 220.751 10.2057 220.636 9.96094C220.527 9.71094 220.36 9.51302 220.136 9.36719C219.912 9.22135 219.626 9.14844 219.277 9.14844C218.98 9.14844 218.724 9.21354 218.511 9.34375C218.297 9.47396 218.123 9.65625 217.987 9.89062C217.857 10.125 217.758 10.401 217.691 10.7188C217.628 11.0312 217.597 11.375 217.597 11.75V12.0625C217.597 12.401 217.644 12.7135 217.737 13C217.836 13.2865 217.974 13.5339 218.152 13.7422C218.334 13.9505 218.553 14.112 218.808 14.2266C219.068 14.3411 219.362 14.3984 219.691 14.3984C220.097 14.3984 220.474 14.3203 220.823 14.1641C221.178 14.0026 221.482 13.7604 221.737 13.4375L222.831 14.625C222.654 14.8802 222.412 15.125 222.105 15.3594C221.803 15.5938 221.438 15.7865 221.011 15.9375C220.584 16.0833 220.097 16.1562 219.55 16.1562ZM226.303 9.35156V16H224.053V7.54688H226.162L226.303 9.35156ZM225.975 11.4766H225.366C225.366 10.8516 225.446 10.2891 225.608 9.78906C225.769 9.28385 225.996 8.85417 226.287 8.5C226.579 8.14062 226.926 7.86719 227.327 7.67969C227.733 7.48698 228.186 7.39062 228.686 7.39062C229.082 7.39062 229.444 7.44792 229.772 7.5625C230.1 7.67708 230.381 7.85938 230.616 8.10938C230.855 8.35938 231.037 8.6901 231.162 9.10156C231.293 9.51302 231.358 10.0156 231.358 10.6094V16H229.092V10.6016C229.092 10.2266 229.04 9.9349 228.936 9.72656C228.832 9.51823 228.678 9.3724 228.475 9.28906C228.277 9.20052 228.032 9.15625 227.741 9.15625C227.439 9.15625 227.176 9.21615 226.952 9.33594C226.733 9.45573 226.551 9.6224 226.405 9.83594C226.264 10.0443 226.157 10.2891 226.084 10.5703C226.011 10.8516 225.975 11.1536 225.975 11.4766ZM237.861 14.1562V4H240.127V16H238.088L237.861 14.1562ZM232.517 11.875V11.7109C232.517 11.0651 232.59 10.4792 232.736 9.95312C232.882 9.42188 233.095 8.96615 233.377 8.58594C233.658 8.20573 234.004 7.91146 234.416 7.70312C234.827 7.49479 235.296 7.39062 235.822 7.39062C236.317 7.39062 236.749 7.49479 237.119 7.70312C237.494 7.91146 237.811 8.20833 238.072 8.59375C238.338 8.97396 238.551 9.42448 238.713 9.94531C238.874 10.4609 238.991 11.026 239.064 11.6406V12C238.991 12.5885 238.874 13.1354 238.713 13.6406C238.551 14.1458 238.338 14.5885 238.072 14.9688C237.811 15.3438 237.494 15.6354 237.119 15.8438C236.744 16.0521 236.306 16.1562 235.806 16.1562C235.28 16.1562 234.811 16.0495 234.4 15.8359C233.994 15.6224 233.65 15.3229 233.369 14.9375C233.093 14.5521 232.882 14.099 232.736 13.5781C232.59 13.0573 232.517 12.4896 232.517 11.875ZM234.767 11.7109V11.875C234.767 12.224 234.793 12.5495 234.845 12.8516C234.903 13.1536 234.994 13.4219 235.119 13.6562C235.249 13.8854 235.416 14.0651 235.619 14.1953C235.827 14.3203 236.08 14.3828 236.377 14.3828C236.762 14.3828 237.08 14.2969 237.33 14.125C237.58 13.9479 237.77 13.7057 237.9 13.3984C238.035 13.0911 238.114 12.737 238.134 12.3359V11.3125C238.119 10.9844 238.072 10.6901 237.994 10.4297C237.921 10.1641 237.811 9.9375 237.666 9.75C237.525 9.5625 237.348 9.41667 237.134 9.3125C236.926 9.20833 236.679 9.15625 236.392 9.15625C236.101 9.15625 235.851 9.22396 235.642 9.35938C235.434 9.48958 235.265 9.66927 235.134 9.89844C235.009 10.1276 234.916 10.3984 234.853 10.7109C234.796 11.0182 234.767 11.3516 234.767 11.7109ZM245.575 16.1562C244.919 16.1562 244.33 16.0521 243.809 15.8438C243.289 15.6302 242.846 15.3359 242.481 14.9609C242.122 14.5859 241.846 14.151 241.653 13.6562C241.46 13.1562 241.364 12.625 241.364 12.0625V11.75C241.364 11.1094 241.455 10.5234 241.637 9.99219C241.82 9.46094 242.08 9 242.419 8.60938C242.762 8.21875 243.179 7.91927 243.669 7.71094C244.158 7.4974 244.71 7.39062 245.325 7.39062C245.924 7.39062 246.455 7.48958 246.919 7.6875C247.382 7.88542 247.77 8.16667 248.083 8.53125C248.401 8.89583 248.64 9.33333 248.802 9.84375C248.963 10.349 249.044 10.9115 249.044 11.5312V12.4688H242.325V10.9688H246.833V10.7969C246.833 10.4844 246.776 10.2057 246.661 9.96094C246.552 9.71094 246.385 9.51302 246.161 9.36719C245.937 9.22135 245.651 9.14844 245.302 9.14844C245.005 9.14844 244.749 9.21354 244.536 9.34375C244.322 9.47396 244.148 9.65625 244.012 9.89062C243.882 10.125 243.783 10.401 243.716 10.7188C243.653 11.0312 243.622 11.375 243.622 11.75V12.0625C243.622 12.401 243.669 12.7135 243.762 13C243.861 13.2865 243.999 13.5339 244.177 13.7422C244.359 13.9505 244.578 14.112 244.833 14.2266C245.093 14.3411 245.387 14.3984 245.716 14.3984C246.122 14.3984 246.499 14.3203 246.848 14.1641C247.203 14.0026 247.507 13.7604 247.762 13.4375L248.856 14.625C248.679 14.8802 248.437 15.125 248.13 15.3594C247.828 15.5938 247.463 15.7865 247.036 15.9375C246.609 16.0833 246.122 16.1562 245.575 16.1562ZM255.117 14.1562V4H257.383V16H255.344L255.117 14.1562ZM249.773 11.875V11.7109C249.773 11.0651 249.846 10.4792 249.992 9.95312C250.138 9.42188 250.352 8.96615 250.633 8.58594C250.914 8.20573 251.26 7.91146 251.672 7.70312C252.083 7.49479 252.552 7.39062 253.078 7.39062C253.573 7.39062 254.005 7.49479 254.375 7.70312C254.75 7.91146 255.068 8.20833 255.328 8.59375C255.594 8.97396 255.807 9.42448 255.969 9.94531C256.13 10.4609 256.247 11.026 256.32 11.6406V12C256.247 12.5885 256.13 13.1354 255.969 13.6406C255.807 14.1458 255.594 14.5885 255.328 14.9688C255.068 15.3438 254.75 15.6354 254.375 15.8438C254 16.0521 253.562 16.1562 253.062 16.1562C252.536 16.1562 252.068 16.0495 251.656 15.8359C251.25 15.6224 250.906 15.3229 250.625 14.9375C250.349 14.5521 250.138 14.099 249.992 13.5781C249.846 13.0573 249.773 12.4896 249.773 11.875ZM252.023 11.7109V11.875C252.023 12.224 252.049 12.5495 252.102 12.8516C252.159 13.1536 252.25 13.4219 252.375 13.6562C252.505 13.8854 252.672 14.0651 252.875 14.1953C253.083 14.3203 253.336 14.3828 253.633 14.3828C254.018 14.3828 254.336 14.2969 254.586 14.125C254.836 13.9479 255.026 13.7057 255.156 13.3984C255.292 13.0911 255.37 12.737 255.391 12.3359V11.3125C255.375 10.9844 255.328 10.6901 255.25 10.4297C255.177 10.1641 255.068 9.9375 254.922 9.75C254.781 9.5625 254.604 9.41667 254.391 9.3125C254.182 9.20833 253.935 9.15625 253.648 9.15625C253.357 9.15625 253.107 9.22396 252.898 9.35938C252.69 9.48958 252.521 9.66927 252.391 9.89844C252.266 10.1276 252.172 10.3984 252.109 10.7109C252.052 11.0182 252.023 11.3516 252.023 11.7109Z" fill="black"/>
<path d="M375.383 13.125C375.383 12.8594 375.341 12.625 375.258 12.4219C375.18 12.2135 375.039 12.026 374.836 11.8594C374.638 11.6927 374.362 11.5339 374.008 11.3828C373.659 11.2318 373.216 11.0781 372.68 10.9219C372.117 10.7552 371.609 10.5703 371.156 10.3672C370.703 10.1589 370.315 9.92188 369.992 9.65625C369.669 9.39062 369.422 9.08594 369.25 8.74219C369.078 8.39844 368.992 8.00521 368.992 7.5625C368.992 7.11979 369.083 6.71094 369.266 6.33594C369.448 5.96094 369.708 5.63542 370.047 5.35938C370.391 5.07812 370.799 4.85938 371.273 4.70312C371.747 4.54688 372.276 4.46875 372.859 4.46875C373.714 4.46875 374.438 4.63281 375.031 4.96094C375.63 5.28385 376.086 5.70833 376.398 6.23438C376.711 6.75521 376.867 7.3125 376.867 7.90625H375.367C375.367 7.47917 375.276 7.10156 375.094 6.77344C374.911 6.4401 374.635 6.17969 374.266 5.99219C373.896 5.79948 373.427 5.70312 372.859 5.70312C372.323 5.70312 371.88 5.78385 371.531 5.94531C371.182 6.10677 370.922 6.32552 370.75 6.60156C370.583 6.8776 370.5 7.19271 370.5 7.54688C370.5 7.78646 370.549 8.00521 370.648 8.20312C370.753 8.39583 370.911 8.57552 371.125 8.74219C371.344 8.90885 371.62 9.0625 371.953 9.20312C372.292 9.34375 372.695 9.47917 373.164 9.60938C373.81 9.79167 374.367 9.99479 374.836 10.2188C375.305 10.4427 375.69 10.6953 375.992 10.9766C376.299 11.2526 376.526 11.5677 376.672 11.9219C376.823 12.2708 376.898 12.6667 376.898 13.1094C376.898 13.5729 376.805 13.9922 376.617 14.3672C376.43 14.7422 376.161 15.0625 375.812 15.3281C375.464 15.5938 375.044 15.7995 374.555 15.9453C374.07 16.0859 373.529 16.1562 372.93 16.1562C372.404 16.1562 371.885 16.0833 371.375 15.9375C370.87 15.7917 370.409 15.5729 369.992 15.2812C369.581 14.9896 369.25 14.6302 369 14.2031C368.755 13.7708 368.633 13.2708 368.633 12.7031H370.133C370.133 13.0938 370.208 13.4297 370.359 13.7109C370.51 13.987 370.716 14.2161 370.977 14.3984C371.242 14.5807 371.542 14.7161 371.875 14.8047C372.214 14.888 372.565 14.9297 372.93 14.9297C373.456 14.9297 373.901 14.8568 374.266 14.7109C374.63 14.5651 374.906 14.3568 375.094 14.0859C375.286 13.8151 375.383 13.4948 375.383 13.125ZM381.941 7.54688V8.65625H377.37V7.54688H381.941ZM378.917 5.49219H380.363V13.9062C380.363 14.1927 380.407 14.4089 380.495 14.5547C380.584 14.7005 380.698 14.7969 380.839 14.8438C380.98 14.8906 381.131 14.9141 381.292 14.9141C381.412 14.9141 381.537 14.9036 381.667 14.8828C381.803 14.8568 381.904 14.8359 381.972 14.8203L381.98 16C381.865 16.0365 381.714 16.0703 381.527 16.1016C381.344 16.138 381.123 16.1562 380.863 16.1562C380.508 16.1562 380.183 16.0859 379.886 15.9453C379.589 15.8047 379.352 15.5703 379.175 15.2422C379.003 14.9089 378.917 14.4609 378.917 13.8984V5.49219ZM384.881 8.875V16H383.436V7.54688H384.842L384.881 8.875ZM387.522 7.5L387.514 8.84375C387.394 8.81771 387.28 8.80208 387.17 8.79688C387.066 8.78646 386.946 8.78125 386.811 8.78125C386.478 8.78125 386.183 8.83333 385.928 8.9375C385.673 9.04167 385.457 9.1875 385.28 9.375C385.103 9.5625 384.962 9.78646 384.858 10.0469C384.759 10.3021 384.694 10.5833 384.663 10.8906L384.256 11.125C384.256 10.6146 384.306 10.1354 384.405 9.6875C384.509 9.23958 384.668 8.84375 384.881 8.5C385.095 8.15104 385.366 7.88021 385.694 7.6875C386.027 7.48958 386.423 7.39062 386.881 7.39062C386.985 7.39062 387.105 7.40365 387.241 7.42969C387.376 7.45052 387.47 7.47396 387.522 7.5ZM390.228 7.54688V16H388.775V7.54688H390.228ZM388.666 5.30469C388.666 5.07031 388.736 4.8724 388.877 4.71094C389.022 4.54948 389.236 4.46875 389.517 4.46875C389.793 4.46875 390.004 4.54948 390.15 4.71094C390.301 4.8724 390.377 5.07031 390.377 5.30469C390.377 5.52865 390.301 5.72135 390.15 5.88281C390.004 6.03906 389.793 6.11719 389.517 6.11719C389.236 6.11719 389.022 6.03906 388.877 5.88281C388.736 5.72135 388.666 5.52865 388.666 5.30469ZM395.731 14.9688C396.075 14.9688 396.393 14.8984 396.684 14.7578C396.976 14.6172 397.216 14.4245 397.403 14.1797C397.591 13.9297 397.697 13.6458 397.723 13.3281H399.098C399.072 13.8281 398.903 14.2943 398.591 14.7266C398.283 15.1536 397.88 15.5 397.38 15.7656C396.88 16.026 396.33 16.1562 395.731 16.1562C395.096 16.1562 394.541 16.0443 394.067 15.8203C393.598 15.5964 393.208 15.2891 392.895 14.8984C392.588 14.5078 392.356 14.0599 392.2 13.5547C392.049 13.0443 391.973 12.5052 391.973 11.9375V11.6094C391.973 11.0417 392.049 10.5052 392.2 10C392.356 9.48958 392.588 9.03906 392.895 8.64844C393.208 8.25781 393.598 7.95052 394.067 7.72656C394.541 7.5026 395.096 7.39062 395.731 7.39062C396.393 7.39062 396.971 7.52604 397.466 7.79688C397.96 8.0625 398.348 8.42708 398.63 8.89062C398.916 9.34896 399.072 9.86979 399.098 10.4531H397.723C397.697 10.1042 397.598 9.78906 397.427 9.50781C397.26 9.22656 397.031 9.0026 396.739 8.83594C396.453 8.66406 396.117 8.57812 395.731 8.57812C395.289 8.57812 394.916 8.66667 394.614 8.84375C394.317 9.01562 394.08 9.25 393.903 9.54688C393.731 9.83854 393.606 10.1641 393.528 10.5234C393.455 10.8776 393.419 11.2396 393.419 11.6094V11.9375C393.419 12.3073 393.455 12.6719 393.528 13.0312C393.601 13.3906 393.723 13.7161 393.895 14.0078C394.072 14.2995 394.309 14.5339 394.606 14.7109C394.908 14.8828 395.283 14.9688 395.731 14.9688ZM404.062 7.54688V8.65625H399.492V7.54688H404.062ZM401.039 5.49219H402.484V13.9062C402.484 14.1927 402.529 14.4089 402.617 14.5547C402.706 14.7005 402.82 14.7969 402.961 14.8438C403.102 14.8906 403.253 14.9141 403.414 14.9141C403.534 14.9141 403.659 14.9036 403.789 14.8828C403.924 14.8568 404.026 14.8359 404.094 14.8203L404.102 16C403.987 16.0365 403.836 16.0703 403.648 16.1016C403.466 16.138 403.245 16.1562 402.984 16.1562C402.63 16.1562 402.305 16.0859 402.008 15.9453C401.711 15.8047 401.474 15.5703 401.297 15.2422C401.125 14.9089 401.039 14.4609 401.039 13.8984V5.49219Z" fill="black"/>
<path d="M21 39.75L204 40L387 39.75M21 27V52.5M387 27V52.5M204.5 27V52.5M295 32V47.5M112.5 32V47.5" stroke="black" stroke-width="2"/>
<path d="M205 27V52.5" stroke="#005EA5" stroke-width="4"/>
</svg>
