<svg width="40" height="40" viewBox="0 0 40 40" fill="none" xmlns="http://www.w3.org/2000/svg">
<path d="M40 20C40 31.0457 31.0457 40 20 40C8.95431 40 0 31.0457 0 20C0 8.95431 8.95431 0 20 0C31.0457 0 40 8.95431 40 20Z" fill="black"/>
<path d="M9.09657 10.3427H18.9408V29.7819H9.09657V10.3427Z" fill="white"/>
<path d="M10.4673 12.8349H12.9595V15.3271H10.4673V12.8349Z" fill="black"/>
<path d="M14.9533 12.8349H17.4455V15.3271H14.9533V12.8349Z" fill="black"/>
<path d="M10.4673 17.5701H12.9595V20.0623H10.4673V17.5701Z" fill="black"/>
<path d="M14.9533 17.5701H17.4455V20.0623H14.9533V17.5701Z" fill="black"/>
<path d="M10.4673 22.3053H12.9595V24.7975H10.4673V22.3053Z" fill="black"/>
<path d="M14.9533 22.3053H17.4455V24.7975H14.9533V22.3053Z" fill="black"/>
<path d="M22.3053 16.4486H30.7788V17.5701H22.3053V16.4486Z" fill="white"/>
<path d="M22.3053 18.8162H30.7788V29.6573H22.3053V18.8162Z" fill="white"/>
<path d="M24.7975 24.7975H28.2866V30.1558H24.7975V24.7975Z" fill="black"/>
</svg>
