<svg width="43" height="40" viewBox="0 0 43 40" fill="none" xmlns="http://www.w3.org/2000/svg">
<circle cx="20" cy="20" r="20" fill="black"/>
<path d="M10.7461 12.2383V13.3457C10.7461 13.8262 10.6948 14.2407 10.5923 14.5894C10.4897 14.9351 10.3418 15.2192 10.1484 15.4419C9.95801 15.6616 9.73096 15.8242 9.46729 15.9297C9.20361 16.0352 8.91064 16.0879 8.58838 16.0879C8.33057 16.0879 8.09033 16.0557 7.86768 15.9912C7.64502 15.9238 7.44434 15.8198 7.26562 15.6792C7.08984 15.5386 6.9375 15.3613 6.80859 15.1475C6.68262 14.9307 6.58594 14.6729 6.51855 14.374C6.45117 14.0752 6.41748 13.7324 6.41748 13.3457V12.2383C6.41748 11.7578 6.46875 11.3462 6.57129 11.0034C6.67676 10.6577 6.82471 10.375 7.01514 10.1553C7.2085 9.93555 7.43701 9.77441 7.70068 9.67188C7.96436 9.56641 8.25732 9.51367 8.57959 9.51367C8.8374 9.51367 9.07617 9.54736 9.2959 9.61475C9.51855 9.6792 9.71924 9.78027 9.89795 9.91797C10.0767 10.0557 10.229 10.2329 10.355 10.4497C10.481 10.6636 10.5776 10.9199 10.645 11.2188C10.7124 11.5146 10.7461 11.8545 10.7461 12.2383ZM9.47607 13.5127V12.0669C9.47607 11.8354 9.46289 11.6333 9.43652 11.4604C9.41309 11.2876 9.37646 11.1411 9.32666 11.021C9.27686 10.8979 9.21533 10.7983 9.14209 10.7222C9.06885 10.646 8.98535 10.5903 8.8916 10.5552C8.79785 10.52 8.69385 10.5024 8.57959 10.5024C8.43604 10.5024 8.30859 10.5303 8.19727 10.5859C8.08887 10.6416 7.99658 10.731 7.92041 10.854C7.84424 10.9741 7.78564 11.1353 7.74463 11.3374C7.70654 11.5366 7.6875 11.7798 7.6875 12.0669V13.5127C7.6875 13.7441 7.69922 13.9478 7.72266 14.1235C7.74902 14.2993 7.78711 14.4502 7.83691 14.5762C7.88965 14.6992 7.95117 14.8003 8.02148 14.8794C8.09473 14.9556 8.17822 15.0112 8.27197 15.0464C8.36865 15.0815 8.47412 15.0991 8.58838 15.0991C8.729 15.0991 8.85352 15.0713 8.96191 15.0156C9.07324 14.957 9.16699 14.8662 9.24316 14.7432C9.32227 14.6172 9.38086 14.4531 9.41895 14.251C9.45703 14.0488 9.47607 13.8027 9.47607 13.5127ZM15.9141 12.2383V13.3457C15.9141 13.8262 15.8628 14.2407 15.7603 14.5894C15.6577 14.9351 15.5098 15.2192 15.3164 15.4419C15.126 15.6616 14.8989 15.8242 14.6353 15.9297C14.3716 16.0352 14.0786 16.0879 13.7563 16.0879C13.4985 16.0879 13.2583 16.0557 13.0356 15.9912C12.813 15.9238 12.6123 15.8198 12.4336 15.6792C12.2578 15.5386 12.1055 15.3613 11.9766 15.1475C11.8506 14.9307 11.7539 14.6729 11.6865 14.374C11.6191 14.0752 11.5854 13.7324 11.5854 13.3457V12.2383C11.5854 11.7578 11.6367 11.3462 11.7393 11.0034C11.8447 10.6577 11.9927 10.375 12.1831 10.1553C12.3765 9.93555 12.605 9.77441 12.8687 9.67188C13.1323 9.56641 13.4253 9.51367 13.7476 9.51367C14.0054 9.51367 14.2441 9.54736 14.4639 9.61475C14.6865 9.6792 14.8872 9.78027 15.0659 9.91797C15.2446 10.0557 15.397 10.2329 15.5229 10.4497C15.6489 10.6636 15.7456 10.9199 15.813 11.2188C15.8804 11.5146 15.9141 11.8545 15.9141 12.2383ZM14.644 13.5127V12.0669C14.644 11.8354 14.6309 11.6333 14.6045 11.4604C14.5811 11.2876 14.5444 11.1411 14.4946 11.021C14.4448 10.8979 14.3833 10.7983 14.3101 10.7222C14.2368 10.646 14.1533 10.5903 14.0596 10.5552C13.9658 10.52 13.8618 10.5024 13.7476 10.5024C13.604 10.5024 13.4766 10.5303 13.3652 10.5859C13.2568 10.6416 13.1646 10.731 13.0884 10.854C13.0122 10.9741 12.9536 11.1353 12.9126 11.3374C12.8745 11.5366 12.8555 11.7798 12.8555 12.0669V13.5127C12.8555 13.7441 12.8672 13.9478 12.8906 14.1235C12.917 14.2993 12.9551 14.4502 13.0049 14.5762C13.0576 14.6992 13.1191 14.8003 13.1895 14.8794C13.2627 14.9556 13.3462 15.0112 13.4399 15.0464C13.5366 15.0815 13.6421 15.0991 13.7563 15.0991C13.897 15.0991 14.0215 15.0713 14.1299 15.0156C14.2412 14.957 14.335 14.8662 14.4111 14.7432C14.4902 14.6172 14.5488 14.4531 14.5869 14.251C14.625 14.0488 14.644 13.8027 14.644 13.5127ZM21.2578 13.6094V14.6025H16.6479L16.5864 13.8335L19.2539 9.60156H20.2603L19.1704 11.4253L17.8433 13.6094H21.2578ZM20.5327 9.60156V16H19.2671V9.60156H20.5327ZM25.2085 9.53564H25.3931V10.5464H25.3184C24.9844 10.5464 24.687 10.5962 24.4263 10.6958C24.1655 10.7954 23.9443 10.9375 23.7627 11.1221C23.584 11.3037 23.4463 11.5234 23.3496 11.7812C23.2559 12.0391 23.209 12.3276 23.209 12.647V13.7104C23.209 13.939 23.231 14.1411 23.2749 14.3169C23.3218 14.4897 23.3877 14.6348 23.4727 14.752C23.5605 14.8662 23.6631 14.9526 23.7803 15.0112C23.8975 15.0669 24.0293 15.0947 24.1758 15.0947C24.3135 15.0947 24.438 15.0654 24.5493 15.0068C24.6636 14.9482 24.7603 14.8662 24.8394 14.7607C24.9214 14.6523 24.9829 14.5264 25.0239 14.3828C25.0679 14.2363 25.0898 14.0767 25.0898 13.9038C25.0898 13.731 25.0679 13.5713 25.0239 13.4248C24.9829 13.2783 24.9214 13.1523 24.8394 13.0469C24.7573 12.9385 24.6577 12.855 24.5405 12.7964C24.4233 12.7378 24.2915 12.7085 24.145 12.7085C23.9458 12.7085 23.77 12.7554 23.6177 12.8491C23.4683 12.9399 23.3511 13.0571 23.2661 13.2007C23.1812 13.3442 23.1357 13.4951 23.1299 13.6533L22.7476 13.4072C22.7563 13.1816 22.8032 12.9678 22.8882 12.7656C22.9761 12.5635 23.0962 12.3848 23.2485 12.2295C23.4038 12.0713 23.5898 11.9482 23.8066 11.8604C24.0234 11.7695 24.2681 11.7241 24.5405 11.7241C24.8394 11.7241 25.1016 11.7812 25.3271 11.8955C25.5557 12.0098 25.7461 12.1665 25.8984 12.3657C26.0508 12.5649 26.165 12.7949 26.2412 13.0557C26.3174 13.3164 26.3555 13.5947 26.3555 13.8906C26.3555 14.2012 26.3042 14.4897 26.2017 14.7563C26.1021 15.0229 25.957 15.2559 25.7666 15.4551C25.5791 15.6543 25.3535 15.8096 25.0898 15.9209C24.8262 16.0322 24.5303 16.0879 24.2021 16.0879C23.8623 16.0879 23.5532 16.0264 23.2749 15.9033C22.9995 15.7773 22.7622 15.6016 22.563 15.376C22.3638 15.1504 22.21 14.8823 22.1016 14.5718C21.9961 14.2612 21.9434 13.9214 21.9434 13.5522V13.0601C21.9434 12.5444 22.0181 12.0728 22.1675 11.645C22.3198 11.2144 22.5381 10.8423 22.8223 10.5288C23.1064 10.2124 23.4492 9.96777 23.8506 9.79492C24.252 9.62207 24.7046 9.53564 25.2085 9.53564ZM27.2256 15.3892C27.2256 15.2017 27.29 15.0449 27.4189 14.9189C27.5508 14.793 27.7251 14.73 27.9419 14.73C28.1587 14.73 28.3315 14.793 28.4604 14.9189C28.5923 15.0449 28.6582 15.2017 28.6582 15.3892C28.6582 15.5767 28.5923 15.7334 28.4604 15.8594C28.3315 15.9854 28.1587 16.0483 27.9419 16.0483C27.7251 16.0483 27.5508 15.9854 27.4189 15.8594C27.29 15.7334 27.2256 15.5767 27.2256 15.3892ZM29.8359 15.3892C29.8359 15.2017 29.9004 15.0449 30.0293 14.9189C30.1611 14.793 30.3354 14.73 30.5522 14.73C30.769 14.73 30.9419 14.793 31.0708 14.9189C31.2026 15.0449 31.2686 15.2017 31.2686 15.3892C31.2686 15.5767 31.2026 15.7334 31.0708 15.8594C30.9419 15.9854 30.769 16.0483 30.5522 16.0483C30.3354 16.0483 30.1611 15.9854 30.0293 15.8594C29.9004 15.7334 29.8359 15.5767 29.8359 15.3892Z" fill="#F4F4F4"/>
<path d="M12.3359 29.0376H12.4194C12.771 29.0376 13.0728 28.9951 13.3247 28.9102C13.5796 28.8223 13.7891 28.6963 13.9531 28.5322C14.1172 28.3682 14.2388 28.1675 14.3179 27.9302C14.397 27.6899 14.4365 27.4175 14.4365 27.1128V25.8999C14.4365 25.6685 14.4131 25.4648 14.3662 25.2891C14.3223 25.1133 14.2578 24.9683 14.1729 24.854C14.0908 24.7368 13.9941 24.6489 13.8828 24.5903C13.7744 24.5317 13.6543 24.5024 13.5225 24.5024C13.3818 24.5024 13.2573 24.5376 13.1489 24.6079C13.0405 24.6753 12.9482 24.7676 12.8721 24.8848C12.7988 25.002 12.7417 25.1367 12.7007 25.2891C12.6626 25.4385 12.6436 25.5952 12.6436 25.7593C12.6436 25.9233 12.6626 26.0801 12.7007 26.2295C12.7388 26.376 12.7959 26.5063 12.8721 26.6206C12.9482 26.7319 13.0435 26.8213 13.1577 26.8887C13.272 26.9531 13.4067 26.9854 13.562 26.9854C13.7114 26.9854 13.8447 26.9575 13.9619 26.9019C14.082 26.8433 14.1831 26.7671 14.2651 26.6733C14.3501 26.5796 14.4146 26.4756 14.4585 26.3613C14.5054 26.2471 14.5288 26.1313 14.5288 26.0142L14.9463 26.2427C14.9463 26.4478 14.9023 26.6499 14.8145 26.8491C14.7266 27.0483 14.6035 27.23 14.4453 27.394C14.29 27.5552 14.1099 27.6841 13.9048 27.7808C13.6997 27.8774 13.48 27.9258 13.2456 27.9258C12.9468 27.9258 12.6816 27.8716 12.4502 27.7632C12.2188 27.6519 12.0225 27.4995 11.8613 27.3062C11.7031 27.1099 11.583 26.8813 11.501 26.6206C11.4189 26.3599 11.3779 26.0771 11.3779 25.7725C11.3779 25.4619 11.4277 25.1704 11.5273 24.8979C11.6299 24.6255 11.7749 24.3853 11.9624 24.1772C12.1528 23.9692 12.3799 23.8066 12.6436 23.6895C12.9102 23.5693 13.2061 23.5093 13.5312 23.5093C13.8564 23.5093 14.1523 23.5723 14.4189 23.6982C14.6855 23.8242 14.9141 24.0029 15.1045 24.2344C15.2949 24.4629 15.4414 24.7368 15.5439 25.0562C15.6494 25.3755 15.7021 25.73 15.7021 26.1196V26.5591C15.7021 26.9751 15.6567 27.3618 15.5659 27.7192C15.478 28.0767 15.3447 28.4004 15.166 28.6904C14.9902 28.9775 14.7705 29.2236 14.5068 29.4287C14.2461 29.6338 13.9429 29.7905 13.5972 29.8989C13.2515 30.0073 12.8647 30.0615 12.437 30.0615H12.3359V29.0376ZM21.0898 27.6094V28.6025H16.48L16.4185 27.8335L19.0859 23.6016H20.0923L19.0024 25.4253L17.6753 27.6094H21.0898ZM20.3647 23.6016V30H19.0991V23.6016H20.3647ZM26.1523 29.0112V30H21.7754V29.1562L23.8452 26.937C24.0532 26.7056 24.2173 26.502 24.3374 26.3262C24.4575 26.1475 24.5439 25.9878 24.5967 25.8472C24.6523 25.7036 24.6802 25.5674 24.6802 25.4385C24.6802 25.2451 24.6479 25.0796 24.5835 24.9419C24.519 24.8013 24.4238 24.6929 24.2979 24.6167C24.1748 24.5405 24.0225 24.5024 23.8408 24.5024C23.6475 24.5024 23.4805 24.5493 23.3398 24.6431C23.2021 24.7368 23.0967 24.8672 23.0234 25.0342C22.9531 25.2012 22.918 25.3901 22.918 25.6011H21.6479C21.6479 25.2202 21.7388 24.8716 21.9204 24.5552C22.1021 24.2358 22.3584 23.9824 22.6895 23.7949C23.0205 23.6045 23.4131 23.5093 23.8672 23.5093C24.3154 23.5093 24.6934 23.5825 25.001 23.729C25.3115 23.8726 25.5459 24.0806 25.7041 24.353C25.8652 24.6226 25.9458 24.9448 25.9458 25.3198C25.9458 25.5308 25.9121 25.7373 25.8447 25.9395C25.7773 26.1387 25.6807 26.3379 25.5547 26.5371C25.4316 26.7334 25.2822 26.9326 25.1064 27.1348C24.9307 27.3369 24.7358 27.5464 24.522 27.7632L23.4102 29.0112H26.1523ZM31.3203 29.0112V30H26.9434V29.1562L29.0132 26.937C29.2212 26.7056 29.3853 26.502 29.5054 26.3262C29.6255 26.1475 29.7119 25.9878 29.7646 25.8472C29.8203 25.7036 29.8481 25.5674 29.8481 25.4385C29.8481 25.2451 29.8159 25.0796 29.7515 24.9419C29.687 24.8013 29.5918 24.6929 29.4658 24.6167C29.3428 24.5405 29.1904 24.5024 29.0088 24.5024C28.8154 24.5024 28.6484 24.5493 28.5078 24.6431C28.3701 24.7368 28.2646 24.8672 28.1914 25.0342C28.1211 25.2012 28.0859 25.3901 28.0859 25.6011H26.8159C26.8159 25.2202 26.9067 24.8716 27.0884 24.5552C27.27 24.2358 27.5264 23.9824 27.8574 23.7949C28.1885 23.6045 28.5811 23.5093 29.0352 23.5093C29.4834 23.5093 29.8613 23.5825 30.1689 23.729C30.4795 23.8726 30.7139 24.0806 30.8721 24.353C31.0332 24.6226 31.1138 24.9448 31.1138 25.3198C31.1138 25.5308 31.0801 25.7373 31.0127 25.9395C30.9453 26.1387 30.8486 26.3379 30.7227 26.5371C30.5996 26.7334 30.4502 26.9326 30.2744 27.1348C30.0986 27.3369 29.9038 27.5464 29.6899 27.7632L28.5781 29.0112H31.3203Z" fill="#F4F4F4"/>
</svg>
